<?xml version="1.0" encoding="utf-8"?>
<!-- Generator: Adobe Illustrator 23.0.1, SVG Export Plug-In . SVG Version: 6.00 Build 0)  -->
<svg version="1.1" xmlns="http://www.w3.org/2000/svg" xmlns:xlink="http://www.w3.org/1999/xlink" x="0px" y="0px"
	 viewBox="0 0 2859.4 3013.7" style="enable-background:new 0 0 2859.4 3013.7;" xml:space="preserve">
<style type="text/css">
	.st0{fill:#91B3FA;}
	.st1{fill:#FFFFFF;}
	.st2{fill:#BDD0FB;}
	.st3{fill:url(#SVGID_1_);}
	.st4{fill:url(#SVGID_2_);}
	.st5{opacity:0.5;fill:#FFFFFF;}
	.st6{opacity:0.86;}
	.st7{opacity:0.86;fill:#FFFFFF;}
	.st8{opacity:0.7;fill:#FFFFFF;}
	.st9{fill:url(#SVGID_3_);}
	.st10{fill:url(#SVGID_4_);}
	.st11{fill:url(#SVGID_5_);}
	.st12{fill:url(#SVGID_6_);}
	.st13{fill:url(#SVGID_7_);}
	.st14{fill:url(#SVGID_8_);}
	.st15{opacity:0.8;fill:#FFFFFF;}
	.st16{fill:url(#SVGID_9_);}
	.st17{fill:url(#SVGID_10_);}
	.st18{fill:url(#SVGID_11_);}
	.st19{fill:url(#SVGID_12_);}
	.st20{fill:url(#SVGID_13_);}
	.st21{fill:url(#SVGID_14_);}
	.st22{fill:url(#SVGID_15_);}
	.st23{fill:url(#SVGID_16_);}
	.st24{fill:url(#SVGID_17_);}
	.st25{fill:url(#SVGID_18_);}
	.st26{fill:url(#SVGID_19_);}
	.st27{fill:url(#SVGID_20_);}
	.st28{fill:url(#SVGID_21_);}
	.st29{fill:url(#SVGID_22_);}
	.st30{fill:url(#SVGID_23_);}
	.st31{fill:url(#SVGID_24_);}
	.st32{fill:url(#SVGID_25_);}
	.st33{fill:url(#SVGID_26_);}
	.st34{fill:url(#SVGID_27_);}
	.st35{fill:url(#SVGID_28_);}
	.st36{fill:url(#SVGID_29_);}
	.st37{fill:#FFB27D;}
	.st38{fill:#F99746;}
	.st39{fill:#EFA26F;}
	.st40{fill:#FFC197;}
	.st41{fill:#2B478B;}
	.st42{fill:#C0D8FB;}
	.st43{fill:#CBE1FD;}
	.st44{fill:#FFD3B6;}
	.st45{fill:#ED7D2B;}
	.st46{fill:#DCEAFF;}
	.st47{fill:#699DEE;}
	.st48{fill:#9ABFF6;}
	.st49{fill:#DFEBFD;}
	.st50{fill:#9EC3F6;}
	.st51{fill:#D2E3FC;}
</style>
<g id="Background">
</g>
<g id="Illustration">
	<g>
		<g>
			<path class="st0" d="M5630.3,2640.3c3.8-11.8-9.9-21.4-19.8-14c-100.6,75.1-348.2,306-344.6,759.1
				c4.6,568.5-135.5,759.8-295.1,868.1c0,0,206.3-36,355.6-229.3C5692.8,3549.4,5562.5,2849.5,5630.3,2640.3z"/>
			<path class="st1" d="M5541.2,2807.6c-18.5,61.1-35.7,122.6-50.7,184.6c-15.3,61.9-28.7,124.3-40.2,186.9
				c-11.2,62.7-21.3,125.6-28.6,188.9c-7.6,63.2-12.6,126.7-17.3,190.4c-5.1,63.7-9.8,127.9-21.1,191.8
				c-11.2,63.8-30.3,127.2-60.3,185.3c-7.5,14.5-15.3,28.9-23.9,42.7c-8.3,14-17.3,27.5-26.4,41c-18.5,26.8-38.8,52.4-60.9,76.3
				c-44.4,47.8-96,88.8-151.5,122.2c-5.8,3.5-13.4,1.6-16.9-4.2c-3.4-5.7-1.7-13.2,3.9-16.7l0,0c13.3-8.5,26.4-17.1,39.2-26.3
				c6.4-4.5,12.7-9.3,19-13.9c6.1-4.9,12.4-9.5,18.4-14.6c24.2-19.9,47-41.4,68.1-64.6c42.4-46,78.1-98.6,106.9-154
				c14.1-27.9,26.1-56.8,35.9-86.5c9.7-29.7,17.2-60.2,22.9-91.2c11.5-62,16.7-125.4,22.2-189.1c5.6-63.6,11.7-127.6,20.4-191.1
				c4.3-31.8,9.1-63.5,14.5-95.1c2.6-15.8,5.5-31.6,8.4-47.4c3-15.7,6.2-31.5,9.4-47.2c13.1-62.8,28.1-125.1,45.1-186.9
				c17.3-61.7,36.2-122.9,57.4-183.3c0.6-1.7,2.5-2.6,4.2-2C5540.8,2804.1,5541.7,2805.9,5541.2,2807.6z"/>
		</g>
		<g>
			<g>
				<path class="st2" d="M5154.4,4581.5c2.3,22.7,27,35.6,47.1,24.9c110.9-59.2,409.2-255.1,491.9-681.1
					c69.8-359.7,141.9-548.2,180.5-631.4c8.2-17.6-10.9-35.4-27.9-26.1C5658.1,3370.5,5071.2,3760.2,5154.4,4581.5z"/>
				<path class="st1" d="M5184.3,4589.2c0.4,0.4,0.8,0.8,1.3,1.2c3.9,2.9,9.5,2.1,12.4-1.8c3.3-4.5,333.7-452.5,453.4-948.3
					c1.2-4.8-1.8-9.6-6.6-10.7c-4.8-1.2-9.6,1.8-10.7,6.6c-118.8,492.2-447.1,937.5-450.4,941.9
					C5181.1,4581.4,5181.5,4586.1,5184.3,4589.2z"/>
			</g>
		</g>
		<g>
			<linearGradient id="SVGID_1_" gradientUnits="userSpaceOnUse" x1="3675.6746" y1="4093.4438" x2="5367.6646" y2="4093.4438">
				<stop  offset="0" style="stop-color:#09005D"/>
				<stop  offset="1" style="stop-color:#1A0F91"/>
			</linearGradient>
			<path class="st3" d="M3706.7,2958.9c-10,402.6-42.3,1791.1-26.9,2283.2c1.6,52.1,43.4,94,95.6,95.7
				c257.8,8.4,999.5,29.8,1421.2,12.1c87.8-3.7,157.7-74.8,159.5-162.7c8.8-422.5,28.1-1611-17.9-2155.4
				c-5.5-65.2-56.7-117.2-121.8-123.7c-280.8-28.1-1026.5-96.7-1390.9-73.1C3759.8,2839.3,3708.3,2893.1,3706.7,2958.9z"/>
			<linearGradient id="SVGID_2_" gradientUnits="userSpaceOnUse" x1="3764.3113" y1="4015.2698" x2="5279.0278" y2="4015.2698">
				<stop  offset="0" style="stop-color:#4F52FF"/>
				<stop  offset="1" style="stop-color:#4042E2"/>
			</linearGradient>
			<path class="st4" d="M3811.4,3084c-14.1,329.7-58.5,1426.5-44.4,1832.1c2.1,59.3,48.8,107.2,108,110.7
				c243.8,14.3,869.1,45.7,1226.7,17.1c64.4-5.2,114.9-57.2,118.4-121.7c18.1-336.4,70.2-1357.6,56.6-1758.6
				c-2.2-64-51.7-116.2-115.5-121.9c-263.8-23.7-941.2-80-1245.1-63.4C3859.2,2981.2,3813.9,3026.9,3811.4,3084z"/>
			<path class="st5" d="M4343.9,2905.4L4343.9,2905.4c0,12.4,9.6,22.5,22,23.2c60.9,3.2,232.4,12.2,309.1,16.7
				c15.1,0.9,27-12.7,24.1-27.6l-0.5-2.5c-2-10.1-10.4-17.8-20.7-18.7c-51.8-4.7-208.2-17.9-311.8-14.2
				C4353.7,2882.6,4343.9,2892.9,4343.9,2905.4z"/>
		</g>
		<path class="st0" d="M5053.7,4155.1H3957.7c-39.4,0-71.4-36.3-71.4-81.1v-902.4c0-60,43.7-108.1,96.4-106.2l1091.8,40.9
			c92.6,6.7,91.3,106.1,91.3,176.9l0,744.3C5166,4097.9,5115.7,4155.1,5053.7,4155.1z"/>
		<g class="st6">
			<path class="st1" d="M5082.2,3432.9h-711.4c-5.4,0-9.8-4.4-9.8-9.8v-50.3c0-5.4,4.4-9.8,9.8-9.8h711.4c5.4,0,9.8,4.4,9.8,9.8
				v50.3C5092,3428.5,5087.6,3432.9,5082.2,3432.9z"/>
			<path class="st1" d="M5082.2,3564.1h-711.4c-5.4,0-9.8-4.4-9.8-9.8V3504c0-5.4,4.4-9.8,9.8-9.8h711.4c5.4,0,9.8,4.4,9.8,9.8v50.3
				C5092,3559.7,5087.6,3564.1,5082.2,3564.1z"/>
		</g>
		<g class="st6">
			<path class="st1" d="M5079,3860h-711.4c-5.4,0-9.8-4.4-9.8-9.8v-50.3c0-5.4,4.4-9.8,9.8-9.8H5079c5.4,0,9.8,4.4,9.8,9.8v50.3
				C5088.8,3855.6,5084.4,3860,5079,3860z"/>
			<path class="st1" d="M5079,3991.2h-711.4c-5.4,0-9.8-4.4-9.8-9.8v-50.3c0-5.4,4.4-9.8,9.8-9.8H5079c5.4,0,9.8,4.4,9.8,9.8v50.3
				C5088.8,3986.8,5084.4,3991.2,5079,3991.2z"/>
		</g>
		<path class="st7" d="M4801.1,3230.4h-495.6c-5.4,0-9.8-4.4-9.8-9.8v-50.3c0-5.4,4.4-9.8,9.8-9.8h495.6c5.4,0,9.8,4.4,9.8,9.8v50.3
			C4811,3226,4806.5,3230.4,4801.1,3230.4z"/>
		<g>
			<path class="st8" d="M4305.9,3651.8h-317.9c-15.7,0-28.5-12.8-28.5-28.5v-317.9c0-15.7,12.8-28.5,28.5-28.5h317.9
				c15.7,0,28.5,12.8,28.5,28.5v317.9C4334.4,3639.1,4321.6,3651.8,4305.9,3651.8z"/>
			<g>
				<linearGradient id="SVGID_3_" gradientUnits="userSpaceOnUse" x1="4110.4321" y1="3113.2769" x2="4170.6924" y2="3792.874">
					<stop  offset="0" style="stop-color:#FF928E"/>
					<stop  offset="1" style="stop-color:#FE7062"/>
				</linearGradient>
				<path class="st9" d="M4053.4,3408.9c14.2,102.8,66.7,151,137.8,172.8l41-33c-74.7-30.2-127.2-84-149.5-169.6L4053.4,3408.9z"/>
				<linearGradient id="SVGID_4_" gradientUnits="userSpaceOnUse" x1="4191.1357" y1="3106.1213" x2="4251.396" y2="3785.7183">
					<stop  offset="0" style="stop-color:#FF928E"/>
					<stop  offset="1" style="stop-color:#FE7062"/>
				</linearGradient>
				<path class="st10" d="M4188.7,3580.8c43.3,7.1,48.4,7.5,83.8-16c4-2.6,4.4-8.4,0.7-11.5l-62.5-53.3c-2.4-2.1-6.2-1.2-7.5,1.7
					l-10.3,22.8L4188.7,3580.8z"/>
				<linearGradient id="SVGID_5_" gradientUnits="userSpaceOnUse" x1="4067.8918" y1="3117.0491" x2="4128.1523" y2="3796.6465">
					<stop  offset="0" style="stop-color:#FF928E"/>
					<stop  offset="1" style="stop-color:#FE7062"/>
				</linearGradient>
				<path class="st11" d="M4052,3411.4c-4.3-39.5-3.5-45.5,20.9-78.4c2.8-3.8,8.6-3.9,11.5-0.1l49.9,65.3c2,2.6,0.9,6.3-2.1,7.4
					l-23.3,9.1l-52,1.1C4054.4,3415.8,4052.2,3413.9,4052,3411.4z"/>
			</g>
		</g>
		<g>
			<path class="st8" d="M4300.9,4069.4h-331.4c-15.7,0-28.5-12.8-28.5-28.5v-331.4c0-15.7,12.8-28.5,28.5-28.5h331.4
				c15.7,0,28.5,12.8,28.5,28.5v331.4C4329.5,4056.7,4316.7,4069.4,4300.9,4069.4z"/>
			<g>
				<g>
					<g>
						<linearGradient id="SVGID_6_" gradientUnits="userSpaceOnUse" x1="4126.3027" y1="4067.8713" x2="4139.6382" y2="3750.0374">
							<stop  offset="0" style="stop-color:#FF928E"/>
							<stop  offset="1" style="stop-color:#FE7062"/>
						</linearGradient>
						<circle class="st12" cx="4136.7" cy="3820.5" r="103.3"/>
						<linearGradient id="SVGID_7_" gradientUnits="userSpaceOnUse" x1="4126.1631" y1="4067.8655" x2="4139.499" y2="3750.0322">
							<stop  offset="0" style="stop-color:#FF928E"/>
							<stop  offset="1" style="stop-color:#FE7062"/>
						</linearGradient>
						<path class="st13" d="M4239.8,3814.9h-103.1h-103.3c0,0-8.2,57.3,84,214.4c4,6.9,11.4,10.9,19.3,11c7.9,0,15.3-4,19.3-10.9
							C4248.2,3872.3,4239.8,3814.9,4239.8,3814.9z"/>
					</g>
					<g>
						<linearGradient id="SVGID_8_" gradientUnits="userSpaceOnUse" x1="4097.9668" y1="3683.324" x2="4206.4072" y2="4072.1597">
							<stop  offset="0" style="stop-color:#FF928E"/>
							<stop  offset="1" style="stop-color:#FE7062"/>
						</linearGradient>
						<path class="st14" d="M4136.6,4043.6v0.6h0c-9,0-17.4-4.9-21.9-12.6c-53.9-91.8-73.6-149.9-80.7-182.3
							c-2-7.5-3.2-14.8-3.5-22.3c-0.6-7.7-0.1-10.9-0.1-11.3l0.3-1.7c4.2-55.5,50.3-98.7,106-98.7c56.4,0,103,43.8,106.1,99.7
							c0.1,0.7,0.2,2.6,0.2,5.7l0,0.4c0,10.1-1.4,20.2-4.3,29.9c-7.3,32.5-27.2,89.9-80.2,180.2
							C4154,4039,4145.9,4043.6,4136.6,4043.6z M4036.2,3819.6c0,1.5,0,3.8,0.3,7.1l0,0c0.3,7.1,1.4,14,3.4,21.1l0,0.1
							c7,32,26.5,89.4,80,180.6c3.4,5.9,9.8,9.5,16.7,9.5l0,3v-3c6.2,0,13.3-3.7,16.8-9.6c52.6-89.7,72.3-146.7,79.5-178.7l0.1-0.2
							c2.7-9.2,3.4-18.7,3.4-28.3l-0.6-0.4v0c0-3,0.5-4.6,0.5-5l0.3-0.2c-2.9-52.8-46.8-94.2-100-94.2c-53.1,0-97,41.9-100.1,95.2
							l-0.1,3.1H4036.2z"/>
					</g>
					
						<ellipse transform="matrix(0.9871 -0.1602 0.1602 0.9871 -558.499 712.0024)" class="st15" cx="4137" cy="3820.1" rx="59.7" ry="59.7"/>
					<g>
						<linearGradient id="SVGID_9_" gradientUnits="userSpaceOnUse" x1="4221.3999" y1="3729.0325" x2="4583.6865" y2="3337.8521">
							<stop  offset="0" style="stop-color:#FEBBBA"/>
							<stop  offset="1" style="stop-color:#FF928E"/>
						</linearGradient>
						<path class="st16" d="M4137,3883.1c-34.7,0-63-28.3-63-63s28.3-63,63-63s63,28.3,63,63S4171.7,3883.1,4137,3883.1z
							 M4137,3763.8c-31.1,0-56.3,25.3-56.3,56.3s25.3,56.3,56.3,56.3s56.3-25.3,56.3-56.3S4168.1,3763.8,4137,3763.8z"/>
					</g>
				</g>
				<g>
					<path class="st15" d="M4080.4,3758c-0.3,0-0.6-0.1-0.8-0.3c-0.4-0.4-0.3-1.1,0.1-1.4c16.8-14.4,38.2-22.3,60.3-22.3
						c0.6,0,1,0.4,1,1s-0.4,1-1,1c-21.6,0-42.6,7.8-59,21.8C4080.9,3758,4080.7,3758,4080.4,3758z"/>
				</g>
				<g>
					<path class="st15" d="M4048.5,3827.5c-0.6,0-1-0.4-1-1c0-17.3,4.8-34.1,13.8-48.7c0.3-0.5,0.9-0.6,1.4-0.3
						c0.5,0.3,0.6,0.9,0.3,1.4c-8.9,14.3-13.5,30.8-13.5,47.7C4049.5,3827.1,4049,3827.5,4048.5,3827.5z"/>
				</g>
			</g>
		</g>
		<g>
			
				<linearGradient id="SVGID_10_" gradientUnits="userSpaceOnUse" x1="16992.6816" y1="5148.0337" x2="16385.4414" y2="5808.54" gradientTransform="matrix(1 9.500000e-03 -9.500000e-03 1 -13250.0029 -59.4684)">
				<stop  offset="0" style="stop-color:#09005D"/>
				<stop  offset="1" style="stop-color:#1A0F91"/>
			</linearGradient>
			<path class="st17" d="M3501.4,5297.4c0,0-6.6,35.5-10,70.8c-1.3,13.8,9.2,25.8,23,26.5c46.9,2.4,147.3,7.2,183.3,5.9
				c5.4-0.2,9-5.7,7.1-10.8c-1.6-4.2-4.8-7.7-9-9.6l-165.1-77.8L3501.4,5297.4z"/>
			
				<linearGradient id="SVGID_11_" gradientUnits="userSpaceOnUse" x1="16795.5801" y1="5197.084" x2="16849.5195" y2="5197.084" gradientTransform="matrix(1 9.500000e-03 -9.500000e-03 1 -13250.0029 -59.4684)">
				<stop  offset="0" style="stop-color:#FEBBBA"/>
				<stop  offset="1" style="stop-color:#FF928E"/>
			</linearGradient>
			<path class="st18" d="M3496.4,5276.4l4.6,42.6c0,0,28.9,13.8,48.9-1.2l-11.6-47.6L3496.4,5276.4z"/>
			<linearGradient id="SVGID_12_" gradientUnits="userSpaceOnUse" x1="3212.3079" y1="5647.9238" x2="3616.0198" y2="4427.2905">
				<stop  offset="0" style="stop-color:#09005D"/>
				<stop  offset="1" style="stop-color:#1A0F91"/>
			</linearGradient>
			<path class="st19" d="M3507.8,4475.8c-2.3,11.1-17,554.9,38.8,799.1c0.9,4-1.1,8.1-4.9,9.6c-9,3.6-26.5,8.7-47.4,9.2
				c-6.5,0.2-12.3-4.1-14-10.4c-16.1-56.7-93-340.8-100.8-611.5c-8.7-302.5,0.1-10.3,0.1-10.3l8.6-186.9L3507.8,4475.8z"/>
			
				<linearGradient id="SVGID_13_" gradientUnits="userSpaceOnUse" x1="16856.457" y1="5022.7734" x2="16249.1924" y2="5683.3076" gradientTransform="matrix(1 9.500000e-03 -9.500000e-03 1 -13250.0029 -59.4684)">
				<stop  offset="0" style="stop-color:#09005D"/>
				<stop  offset="1" style="stop-color:#1A0F91"/>
			</linearGradient>
			<path class="st20" d="M3310.4,5314.1c0,0-10.2,17.9-20.3,65.5c-1.8,8.6,4.1,16.9,12.9,17.9c15.5,1.7,39.3,3.9,58.4,3.9
				c8.8,0,15.8-7.6,14.8-16.3c-2-17.5-8.3-46.1-28.4-68.6L3310.4,5314.1z"/>
			
				<linearGradient id="SVGID_14_" gradientUnits="userSpaceOnUse" x1="16601.1816" y1="5194.3105" x2="16647.752" y2="5194.3105" gradientTransform="matrix(1 9.500000e-03 -9.500000e-03 1 -13250.0029 -59.4684)">
				<stop  offset="0" style="stop-color:#FEBBBA"/>
				<stop  offset="1" style="stop-color:#FF928E"/>
			</linearGradient>
			<path class="st21" d="M3302.1,5259.3l11.2,64.5c0,0,11.6,8.8,34.7,2.7l-5-69.3L3302.1,5259.3z"/>
			<linearGradient id="SVGID_15_" gradientUnits="userSpaceOnUse" x1="3079.3357" y1="5603.9448" x2="3483.0479" y2="4383.3101">
				<stop  offset="0" style="stop-color:#09005D"/>
				<stop  offset="1" style="stop-color:#1A0F91"/>
			</linearGradient>
			<path class="st22" d="M3277.6,4490.3c-50.3,286.5,3.5,709.3,22.3,792.1c1.1,5.1,5.2,9,10.3,9.9c8.7,1.5,23,2.8,37.2-1.1
				c4.9-1.4,8.3-5.7,8.6-10.8c3.3-66.8,2.5-477,48.3-638.7c2.3-8.2,7.4-15.3,14.4-20.2l86.6-60.3l7.5-98.7L3277.6,4490.3z"/>
			<g>
				
					<linearGradient id="SVGID_16_" gradientUnits="userSpaceOnUse" x1="4090.7937" y1="-8770.6396" x2="3580.7288" y2="-8045.5469" gradientTransform="matrix(-1 0 0 1 -1547.0842 0)">
					<stop  offset="0" style="stop-color:#FF928E"/>
					<stop  offset="1" style="stop-color:#FE7062"/>
				</linearGradient>
				<path class="st23" d="M3585.7,3949.5c-142.5-3.7-300.1,34.6-300.1,34.6c-44.8,247.4-12.5,533.6-12.5,533.6
					c110,30,234.9-15.4,234.9-15.4c19.3-103.4,107.6-394.1,107.6-394.1c69.7-8,127.2-27.5,174.7-53.6
					c-35.6-42.1-52.1-95.4-59.2-126.9C3680.7,3942.8,3629.7,3950.6,3585.7,3949.5z"/>
				
					<linearGradient id="SVGID_17_" gradientUnits="userSpaceOnUse" x1="17017.5996" y1="3789.8679" x2="17293.1758" y2="3789.8679" gradientTransform="matrix(1 9.500000e-03 -9.500000e-03 1 -13250.0029 -59.4684)">
					<stop  offset="0" style="stop-color:#FEBBBA"/>
					<stop  offset="1" style="stop-color:#FF928E"/>
				</linearGradient>
				<path class="st24" d="M4008.6,3743.6c-13.8-17-31.6-9.2-31.6-9.2c-21.8,88.4-132.4,159.1-245.7,193.2
					c7.1,31.5,23.6,84.8,59.2,126.9C3978.9,3950.9,4008.6,3743.6,4008.6,3743.6z"/>
			</g>
			<g>
				<linearGradient id="SVGID_18_" gradientUnits="userSpaceOnUse" x1="4093.5161" y1="3379.9805" x2="3982.6877" y2="3829.6279">
					<stop  offset="0" style="stop-color:#FEBBBA"/>
					<stop  offset="1" style="stop-color:#FF928E"/>
				</linearGradient>
				<path class="st25" d="M4005.2,3747.9c1.4,4.7-15.6,11.6-25.4-7.5c-0.3-9.1-5.4-48.3,0.1-55.7c29.4-39.3,86.2-88.4,86.2-88.4
					c9.4,9.5,1.5,18.6,1.5,18.6l-27.6,28.2c5.6,10.4,12.5,19.2,15.6,31.7c2.4,9.5,0.8,19.6-4.1,28.1c-4.9,8.6-11.5,19.8-17.8,28.5
					C4021.9,3747.9,4005.2,3747.9,4005.2,3747.9z"/>
				<linearGradient id="SVGID_19_" gradientUnits="userSpaceOnUse" x1="4038.4985" y1="3523.1042" x2="3962.5017" y2="4029.7485">
					<stop  offset="0" style="stop-color:#FEBBBA"/>
					<stop  offset="1" style="stop-color:#FF928E"/>
				</linearGradient>
				<path class="st26" d="M4027.8,3661.5l-25.1,20.9l-8,20.9l22,24.8c0,0,7.9-41.6,13.5-50.6
					C4035.8,3668.5,4033,3664.2,4027.8,3661.5z"/>
			</g>
			
				<linearGradient id="SVGID_20_" gradientUnits="userSpaceOnUse" x1="4223.7793" y1="-8677.0977" x2="3713.7148" y2="-7952.0054" gradientTransform="matrix(-1 0 0 1 -1547.0842 0)">
				<stop  offset="0" style="stop-color:#FF928E"/>
				<stop  offset="1" style="stop-color:#FE7062"/>
			</linearGradient>
			<path class="st27" d="M3339,4122.5l-53.3-138.5c0,0-134,89.2-156.9,203.6c25.1,2.1,70.8,9.1,115.4,32.1
				C3254.5,4165.7,3339,4122.5,3339,4122.5z"/>
			
				<linearGradient id="SVGID_21_" gradientUnits="userSpaceOnUse" x1="16414.582" y1="4180.1782" x2="16763.3164" y2="4180.1782" gradientTransform="matrix(1 9.500000e-03 -9.500000e-03 1 -13250.0029 -59.4684)">
				<stop  offset="0" style="stop-color:#FEBBBA"/>
				<stop  offset="1" style="stop-color:#FF928E"/>
			</linearGradient>
			<path class="st28" d="M3454.1,4253.5c0,0-150.2,83-200,10.4c-10.3-15.1-12.7-30-10-44.1c-44.6-23-90.3-30-115.4-32.1
				c-6.9,34.5-3.8,71.3,16.2,108.6c86.8,162.4,328.6-5.8,328.6-5.8L3454.1,4253.5z"/>
			
				<linearGradient id="SVGID_22_" gradientUnits="userSpaceOnUse" x1="16682.373" y1="3807.3667" x2="16820.2578" y2="3807.3667" gradientTransform="matrix(1 9.500000e-03 -9.500000e-03 1 -13250.0029 -59.4684)">
				<stop  offset="0" style="stop-color:#FEBBBA"/>
				<stop  offset="1" style="stop-color:#FF928E"/>
			</linearGradient>
			<path class="st29" d="M3442.5,3832.5l-46.6,130.7c-0.8,2.2,0.1,4.6,2.1,5.7c12.3,6.9,56.6,27.1,110.6-6.4
				c5.6-3.5,9.5-9.2,10.4-15.8l15.8-113.3L3442.5,3832.5z"/>
			<g>
				
					<linearGradient id="SVGID_23_" gradientUnits="userSpaceOnUse" x1="5438.2085" y1="11392.1318" x2="5386.6836" y2="11222.1895" gradientTransform="matrix(0.7523 -0.6588 0.6588 0.7523 -8028.5884 -1167.3212)">
					<stop  offset="0" style="stop-color:#FEBBBA"/>
					<stop  offset="1" style="stop-color:#FF928E"/>
				</linearGradient>
				<path class="st30" d="M3542.3,3712c0,0,48.9,94.2,42.1,132c-6.7,37.8-68.4,34.5-122,3.2l-36.7-101.5L3542.3,3712z"/>
				
					<linearGradient id="SVGID_24_" gradientUnits="userSpaceOnUse" x1="5391.7261" y1="11096.0322" x2="5434.8262" y2="11341.8613" gradientTransform="matrix(0.7523 -0.6588 0.6588 0.7523 -8028.5884 -1167.3212)">
					<stop  offset="0" style="stop-color:#09005D"/>
					<stop  offset="1" style="stop-color:#1A0F91"/>
				</linearGradient>
				<path class="st31" d="M3465.3,3797.5c2.2-0.9,3-3.6,1.7-5.6c-3.9-6.1-11.3-18.6-13.6-29.5c0,0-8.9-5.8,22.9-13.1
					c31.8-7.3,79.2-18.6,89.4-45.5c9.9-26.2-14.9-92.7-56-40.3c-1.6,2-4.6,2-6.1,0c-6.6-8.7-23.9-26.9-48.4-16.2
					c-22.9,10-25.6,26.6-25.3,35.1c0.1,2.5-2.2,4.4-4.6,3.9c-11.5-2.3-39.1-4.5-52.2,23.8c-10.8,23.2-4.1,36.5,2.2,43
					c2,2.1,1.1,5.6-1.7,6.4c-7.6,2.2-17.4,8.6-16.6,26.3c1.1,24.5,28.5,22.6,36.3,21.6c1.3-0.2,2.6,0.3,3.4,1.2
					c6.6,7.5,36.4,39.2,69,43.3c2.8,0.4,5-2.4,4.1-5.1l-13.7-41.1c-0.6-1.9,0.3-4,2.1-4.8L3465.3,3797.5z"/>
				
					<linearGradient id="SVGID_25_" gradientUnits="userSpaceOnUse" x1="5385.5381" y1="11391.3379" x2="5339.1802" y2="11238.4385" gradientTransform="matrix(0.7523 -0.6588 0.6588 0.7523 -8028.5884 -1167.3212)">
					<stop  offset="0" style="stop-color:#FEBBBA"/>
					<stop  offset="1" style="stop-color:#FF928E"/>
				</linearGradient>
				<path class="st32" d="M3470.9,3803.4c0,0-35.2-24.7-38-4.2c-2.8,20.5,31.6,30,48.8,22.5L3470.9,3803.4z"/>
			</g>
			<g>
				<g>
					
						<linearGradient id="SVGID_26_" gradientUnits="userSpaceOnUse" x1="16546.0898" y1="4055.0615" x2="16738.5215" y2="4856.8589" gradientTransform="matrix(1 0 0 1 -12978.9785 0)">
						<stop  offset="0" style="stop-color:#09005D"/>
						<stop  offset="1" style="stop-color:#1A0F91"/>
					</linearGradient>
					<path class="st33" d="M3423.4,4384.7l81.8-285.8c0.9-3.2,3.7-5.6,7-6c14.8-1.7,57.8-6.6,107.4-10.8
						c59.8-5.1,129.1-9.1,170.6-5.7c5.9,0.5,9.5,6.7,6.8,12c-23.6,47.7-120.6,241.8-169.1,305.3c-1.6,2.1-4.1,3.3-6.7,3.3
						l-189.9-1.8C3425.8,4395.3,3421.9,4390,3423.4,4384.7z"/>
					
						<linearGradient id="SVGID_27_" gradientUnits="userSpaceOnUse" x1="16414.2305" y1="4267.1797" x2="16523.2578" y2="4267.1797" gradientTransform="matrix(1 0 0 1 -12978.9785 0)">
						<stop  offset="0" style="stop-color:#FEBBBA"/>
						<stop  offset="1" style="stop-color:#FF928E"/>
					</linearGradient>
					<path class="st34" d="M3443.1,4315.6c0,0-11.4-46.9-6.8-63.5c4.6-16.6,13.5-38,43.2-33.3c29.7,4.8,64.7,17.3,64.7,17.3
						s-1.8,21.7-24.3,14.7l14,10.8c0,0-2,17.3-21.1,8.1l13,14.4c0,0-8.2,14.2-22.2,5.1C3489.6,4280,3482.9,4321.3,3443.1,4315.6z"/>
				</g>
			</g>
		</g>
		<path class="st0" d="M4990.6,4983.3l-1027.8-32.1c-42.6-1.3-76.4-35.8-76.4-78v-546.7c0-49.4,40.5-89.4,90.4-89.4h1097.7
			c39.1,0,70.3,32.1,68.9,70.7l-20.9,553.8C5119.9,4931.1,5060.9,4985.5,4990.6,4983.3z"/>
		<g>
			<g>
				<linearGradient id="SVGID_28_" gradientUnits="userSpaceOnUse" x1="4344.2456" y1="5102.208" x2="4534.2695" y2="4562.1396">
					<stop  offset="0" style="stop-color:#FF928E"/>
					<stop  offset="1" style="stop-color:#FE7062"/>
				</linearGradient>
				<path class="st35" d="M4870.9,4876.4h-711.7c-28.7,0-52-21.3-52-47.6v-424c0-25.3,21.6-46.1,49.1-47.5l739.2-37.7
					c30.9-1.6,56.5,21.8,54.8,50.1l-27.5,461.7C4921.4,4856.6,4898.6,4876.4,4870.9,4876.4z"/>
				<g>
					<linearGradient id="SVGID_29_" gradientUnits="userSpaceOnUse" x1="4484.5249" y1="4604.4888" x2="4614.542" y2="3714.3752">
						<stop  offset="0" style="stop-color:#FF928E"/>
						<stop  offset="1" style="stop-color:#FE7062"/>
					</linearGradient>
					<path class="st36" d="M4531.7,4620.5l389.1-296.4c-7.6-3.3-16.2-5-25.2-4.5l-739.2,37.7c-12.7,0.6-24.1,5.4-32.8,12.9
						l291.2,247.7C4446.3,4644.8,4498.3,4645.9,4531.7,4620.5z"/>
				</g>
			</g>
			<path class="st1" d="M4477.6,4605.8c-19.3,0-38.6-6.3-54.1-18.8l-109.7-88.6c-3.2-2.6-3.5-7.1-0.7-10c2.8-3,7.8-3.2,11-0.6
				l109.7,88.6c23.3,18.8,57.2,20.4,82.5,3.8l56.8-37.4c3.5-2.3,8.3-1.6,10.9,1.6c2.5,3.2,1.7,7.6-1.8,9.9l-56.8,37.4
				C4510.9,4601.1,4494.2,4605.8,4477.6,4605.8z"/>
			<path class="st1" d="M4278.1,4467.2c-1.8,0-3.7-0.6-5.1-1.8l-14.8-11.9c-3.2-2.6-3.5-7.1-0.7-10c2.8-3,7.8-3.2,11-0.6l14.8,11.9
				c3.2,2.6,3.5,7.1,0.7,10C4282.4,4466.4,4280.3,4467.2,4278.1,4467.2z"/>
		</g>
	</g>
	<g>
		<path class="st37" d="M1753.5,1520.1c0,0-140.7,281.4-283.6,475.7c-56.9,77.3-114.1,140.8-162.9,167.3
			c-47.8,25.9-88.3,66.2-121.7,110.8c-86.7,115.5-126.7,260.2-126.7,260.2l-365.4-552.8c0,0,12.5-540.4,56.3-630.8
			c63.9-131.7,94.8-397.9,119.4-450.9c18.2-39.3,70.3-242.4,75.3-257.3c2.2-6.4,19.5-16.3,42-16.3c18,0,48.7,17.4,56.4,53.3
			c39.1,181.2-8,300.7-7.4,306c13.8,139.2-27.7,242.6,1.4,270c1.1,1,3.1,0.5,5.9-1.3c50.4-32.3,363-488.2,401.6-498
			C1484.6,745.6,1753.5,1520.1,1753.5,1520.1z"/>
		<path class="st38" d="M1168.4,2424.7c0,0-5,245.7-19.2,576.6H227.5c210.7-449.3,393.9-827.5,393.9-827.5
			S1146.2,2189.8,1168.4,2424.7z"/>
		<path class="st37" d="M2073,567.6l-113.2,165.9l-111,162.8c-6.8,8.2-14.6,11-23.1,10.2c-26.6-2.5-59.6-41-85.3-62.2l-2.6-2.1
			c-33.9-28-38.7-78.7-10.6-112.5l169.7-205.2v0l50.3-60.8c28-33.9,78.7-38.7,112.5-10.6l2.6,2.1
			C2096.2,483.1,2101,533.7,2073,567.6z"/>
		<path class="st39" d="M1959.8,733.5l-111,162.8c-6.8,8.2-14.6,11-23.1,10.2l71.2-382.1C1897,526.5,1909.1,698,1959.8,733.5z"/>
		<path class="st39" d="M1469.9,1995.8c-56.9,77.3-114.1,140.8-162.9,167.3c-47.8,25.9-88.3,66.2-121.7,110.8
			c-38.5-18-82.4-39-125.3-59.9c-52.3-25.4-54.3-99.6-3.1-127.1c0.5-0.3,1-0.5,1.5-0.8c48-27.4,97.1-124.3,97.1-124.3L1469.9,1995.8
			z"/>
		<path class="st40" d="M941.5,650.7l-29.6,119.5c0,0,25.9,10.6,42.5,2.4S984.6,657.1,941.5,650.7z"/>
		<g>
			<path class="st41" d="M1829.4,2052.3H1120c-42.6,0-77.5-34.9-77.5-77.5V502.6c0-42.6,34.9-77.5,77.5-77.5h709.4
				c42.6,0,77.5,34.9,77.5,77.5v1472.2C1906.9,2017.4,1872,2052.3,1829.4,2052.3z"/>
			<g>
				<path class="st42" d="M1864,549.7v1367c0,46.4-37.7,84.3-83.7,84.3H1169c-46,0-83.7-37.9-83.7-84.3v-1367
					c0-46.4,37.7-84.3,83.7-84.3h611.3C1826.4,465.4,1864,503.4,1864,549.7z"/>
				<path class="st43" d="M1780.3,465.4l-603.8,1535.6h-7.6c-46,0-83.7-37.9-83.7-84.3v-1367c0-46.4,37.7-84.3,83.7-84.3H1780.3z"/>
			</g>
			<path class="st41" d="M1614.5,516.3h-279.7c-14.2,0-25.8-11.6-25.8-25.8v-30.1c0-14.2,11.6-25.8,25.8-25.8h279.7
				c14.2,0,25.8,11.6,25.8,25.8v30.1C1640.3,504.7,1628.7,516.3,1614.5,516.3z"/>
		</g>
		<g>
			<path class="st37" d="M2016.6,1194.1l-16.9,6.4l-113.5,43.1c-2.7,1-5.4,1.9-8,2.5c-37.6,9.8-77.6-10.3-91.6-47.3l-1.7-4.4
				c-15.1-39.7,5.1-84.6,44.8-99.7l105.8-40.2l7.7-2.9l16.9-6.4c39.7-15.1,84.6,5.1,99.7,44.8l1.7,4.4
				C2076.5,1134.1,2056.4,1179,2016.6,1194.1z"/>
			<path class="st44" d="M1924.5,1196.7c-18.9,7.2-53.2,19.9-71.6,22.5c-5.2,0.7-14.7-2.1-23.7-11.8c-5.4-5.8-10.5-14.2-14.3-25.7
				c-1.8-5.4-3.3-10.8-3.9-16.4c-0.7-6.5-0.5-13.1,0.6-19.5c1-5.8,5-11.1,10.8-13.9c0,0,0.1,0,0.1,0c19.5-9.3,45.8-20.7,68.8-27
				c15.9-4.4,32,2.6,37.1,16.6l2.4,6.5l12.2,33.4C1948.1,1175,1940,1190.8,1924.5,1196.7z"/>
			<path class="st40" d="M1924.5,1196.7c-18.9,7.2-53.2,19.9-71.6,22.5c-5.2,0.7-14.7-2.1-23.7-11.8c-1-2.2-1.8-4.6-2.7-7.1
				c-1.8-5.4-3.3-10.8-3.9-16.4c-0.7-6.5-0.5-13.1,0.6-19.5c1-5.8,5-11.1,10.8-13.9c0,0,0.1,0,0.1,0c19.5-9.3,45.8-20.7,68.8-27
				c10.2-2.8,20.5-1,27.9,4.4l12.2,33.4C1948.1,1175,1940,1190.8,1924.5,1196.7z"/>
		</g>
		<g>
			<path class="st37" d="M1965.1,1353.6l-87.5,23.8c-26.6,7.2-54.3-8.6-61.5-35.2l-2.7-9.9c-7.2-26.6,8.6-54.3,35.2-61.5l87.5-23.8
				c26.6-7.2,54.3,8.6,61.5,35.2l2.7,9.9C2007.6,1318.7,1991.7,1346.4,1965.1,1353.6z"/>
			<path class="st44" d="M1917.8,1349.3c-16.1,4.3-45.1,11.9-60.4,12.7c-5.5,0.3-16.6-4.4-23.9-18.9c-1.8-3.5-3.3-7.6-4.5-12.3
				c-1.1-4.3-1.9-8.5-1.9-12.9c-0.1-5.1,0.5-10.1,1.9-15c1.3-4.4,4.9-8.2,9.9-10c0,0,0.1,0,0.1,0c16.7-5.9,39.1-12.9,58.5-16.3
				c13.4-2.3,26.1,4.1,29.2,15.1l2.3,7.9l6.7,23.7C1938.9,1334.2,1931,1345.8,1917.8,1349.3z"/>
			<path class="st40" d="M1917.8,1349.3c-16.1,4.3-45.1,11.9-60.4,12.7c-5.5,0.3-16.6-4.4-23.9-18.9c-1-4-1.7-8-1.8-12.1
				c-0.1-5.1,0.5-10.1,2-15c1.3-4.4,4.9-8.2,9.9-10c0,0,0.1,0,0.1,0c16.7-5.9,39.1-12.9,58.5-16.3c11.1-2,21.7,2.1,26.8,9.9
				l6.7,23.7C1938.9,1334.2,1931,1345.8,1917.8,1349.3z"/>
		</g>
		<path class="st45" d="M531.6,2360.2c0,0,180.1,172.5,301.5,239.1l91.9-65.2v96.2c0,0,180.8,32,237.8,0V2368l-507.8-254.6
			L531.6,2360.2z"/>
		<path class="st46" d="M1201.3,2609.4c-70,14.3-220.7-40.6-220.7-40.6l24.3-234.9L834.5,2529c-86.7-32.3-222.3-116.5-302.9-168.9
			c-40.1-26.1-66.6-44.3-66.6-44.3c113.7-183,228.1-354.1,228.1-354.1c33.6,67.2,113,125.5,199.1,172.1
			c143.1,77.5,304.7,122.8,304.7,122.8C1196.9,2396.3,1201.3,2609.4,1201.3,2609.4z"/>
		<g>
			<path class="st37" d="M2013.9,1026.4c-0.6,0.2-1.2,0.4-1.9,0.6l-114.7,29.5c-50.4,13-102.6-14.3-115.9-60.7l-6.8-23.7
				c-12.8-44.5,14.7-91,61.6-106.1l37.9-9.7l76.9-19.7c50.4-13,102.6,14.3,115.9,60.7l6.8,23.7
				C2086.2,964.8,2059.6,1010.6,2013.9,1026.4z"/>
			<path class="st44" d="M1961.3,994.3l-55.7,25.1c-0.1,0-0.2,0-0.4,0.1c-2.2,0.6-4.5,1.1-6.7,1.4c-0.9,0.1-1.9,0.2-2.8,0.4
				c-0.4,0-0.8,0-1.2,0c-6.1-0.2-10.4-6.7-7.7-12.5c5.3-11.5,6.7-24.7,3.2-37.8l-1.3-4.9c0,0,0-0.1,0-0.1l-4.3-15.8
				c-3.4-12.6-10.7-23.2-20.2-30.8c-1.1-0.9-2.3-1.8-3.5-2.6c-11-7.6-8.2-24.9,4.7-28.5c0.1,0,0.2-0.1,0.4-0.1l61.2-9.3
				c15.1-4.1,29.7,7.5,33.8,22.7l4.9,18l10.5,38.4C1980,973.1,1976.4,990.2,1961.3,994.3z"/>
			<path class="st40" d="M1961.3,994.3l-55.7,25.1c-0.1,0-0.2,0-0.4,0.1c-1.3,0.2-5.4,0.9-10.7,1.8c-6.1-0.2-10.4-6.7-7.7-12.5
				c5.3-11.5,6.7-24.7,3.2-37.8l-1.3-4.9c0,0,0-0.1,0-0.1l-4.3-15.8c-3.4-12.6-10.7-23.2-20.2-30.8c2-2.9,4.9-5.2,8.8-6.2
				c0.1,0,0.2-0.1,0.4-0.1l61.2-9.3c12.7-3.5,25.1,4.3,31.1,15.8l10.5,38.4C1980,973.1,1976.4,990.2,1961.3,994.3z"/>
		</g>
		<path class="st39" d="M1042.5,1623.1c0,0-25-218.5-48.1-261.1c-23.1-42.6-42.6-127.9-7.1-191.3c35.5-63.4,47.8-185.4,47.8-185.4
			c13.8,139.2-27.7,242.6,1.4,270c1.1,1,3.1,0.5,5.9-1.3L1042.5,1623.1z"/>
		<path class="st47" d="M714.8,1267.3H1619c20.5,0,37.2-16.6,37.2-37.2v-383c0-20.5-16.6-37.2-37.2-37.2H714.8
			c-20.5,0-37.2,16.6-37.2,37.2v383C677.6,1250.6,694.3,1267.3,714.8,1267.3z"/>
		<g>
			<path class="st48" d="M1622.2,751.9h-369.4c-17.2,0-31.1-13.9-31.1-31.1v-93.7c0-17.2,13.9-31.1,31.1-31.1h369.4
				c17.2,0,31.1,13.9,31.1,31.1v93.7C1653.3,738,1639.4,751.9,1622.2,751.9z"/>
		</g>
		<g>
			<path class="st48" d="M1610.2,1895.2H1183c-20.6,0-37.2-16.7-37.2-37.2v-117.9c0-20.6,16.7-37.2,37.2-37.2h427.2
				c20.6,0,37.2,16.7,37.2,37.2V1858C1647.4,1878.5,1630.7,1895.2,1610.2,1895.2z"/>
		</g>
		<g>
			<path class="st38" d="M1766.1,1623.1h-412.4c-24.6,0-44.6-20-44.6-44.6v-186.9c0-24.6,20-44.6,44.6-44.6h412.4
				c24.6,0,44.6,20,44.6,44.6v186.9C1810.7,1603.1,1790.7,1623.1,1766.1,1623.1z"/>
		</g>
		<path class="st37" d="M2792.7,3001.3h-676c-32.4-21.7-200.8-136.6-270.4-222.2c-14.8-18.1-68.8-174.5-110.2-301.4
			c-25.9-79.3-46.9-147.1-50.5-162.7c-1.2-5.4-2.1-16.2-2.6-30.7v-0.1c-1.8-51.9,0.6-152,3.1-231.5l0-0.4l0-1
			c0.1-3.5,0.2-6.9,0.3-10.3v-0.1c0-0.3,0-0.7,0-1c0.5-13.8,0.9-26.8,1.3-38.7c1-29.6,1.9-51.9,2.3-60.6l0.1-4.1c0,0,0,0,0,0
			c1.1-0.6,33.6-18,77.1,13.4c10.5,7.6,20.2,25.8,29,49.7c5.7,15.2,11,32.7,15.9,51.1c19,70.9,32.6,155.6,39.9,178.3
			c11.7,36.7,149.9,197.9,158.6,207.9c0.1,0.2,0.3,0.3,0.4,0.5v-254.6l-104.3-279.2l-42.8-114.6l-21.5-57.6c0,0-33-54.2-60.7-119.4
			c-12.1-28.5-23.2-59.2-30.1-88.3c-1.6-6.9-3-13.8-4.2-20.5c0,0,0,0,0,0c-4.1-24.6-4.4-47.4,1.3-66c10.1-33.1,32.8-39.3,50.3-38.7
			c1.8,0.1,3.6,0.2,5.2,0.4c1.7,0.2,3.4,0.5,5,1c3.1,0.8,6,2,8.7,3.6c0,0,0,0,0,0c4.5,2.6,8.3,6.2,11.3,10.6
			c0,0,14.8,19.3,34.5,45.2c13,17,28.2,37,42.8,56.1c26,34.2,50.2,66.1,56.8,75.4c35.9,50.5,132.6,215.2,132.6,215.2l113.1,4.7
			c17.9,0.7,35,7.9,48.1,20.1c40.2,37.6,127,118.9,137.6,131c0,4,67.4,36.4,119.5,65.2c37.2,15.7,108,71.5,108,71.5
			c14.7,12.9,25.8,25.8,31.5,38.1c24.3,52.8,90.1,512,121.5,738.9C2785.7,2948.6,2792.2,2997.6,2792.7,3001.3z"/>
		<path class="st39" d="M2096.2,1805.9c0,0,104.8,171.1,118.7,178.8c13.9,7.7,67.8,18.5,74,0
			C2295.1,1966.2,2096.2,1805.9,2096.2,1805.9z"/>
		<path class="st39" d="M2623.1,2099c-0.2-0.2-0.4-0.3-0.5-0.5c0,0-70.8-55.8-108-71.5c-47.8-26.5-108.5-56-118.2-63.7
			c11.1,12.7,89.2,101,119.2,107.6C2542,2076.8,2601.9,2093.2,2623.1,2099z"/>
		<path class="st39" d="M2011.2,2437.3v-254.6c0,0,60.5,101.2,65.1,156.7C2080.9,2394.8,2051.2,2484.7,2011.2,2437.3z"/>
		<path class="st44" d="M1791.8,1503c-8.8-15.2-24.7-42.7-30.1-58c-1.5-4.3-1.3-13,4-22.3c3.2-5.6,8.2-11.3,15.9-16.5
			c3.6-2.4,7.2-4.6,11.1-6c4.6-1.7,9.4-2.6,14.3-2.6c4.4,0,9,2.5,12.2,7.1c0,0,0,0.1,0,0.1c10.5,15.3,23.8,36.1,32.8,55
			c6.3,13,4.3,28.1-4.8,34.7l-4.3,3.1l-21.8,15.9C1812,1519.9,1799,1515.4,1791.8,1503z"/>
		<path class="st40" d="M1791.8,1503c-8.8-15.2-24.7-42.7-30.1-58c-1.5-4.3-1.3-13,4-22.3c1.4-1.2,2.9-2.3,4.6-3.4
			c3.6-2.4,7.2-4.6,11.1-6c4.6-1.7,9.4-2.6,14.3-2.6c4.4-0.1,9,2.5,12.2,7.1c0,0,0,0.1,0,0.1c10.5,15.3,23.8,36.1,32.8,55
			c4,8.3,4.6,17.5,2.2,24.7l-21.8,15.9C1812,1519.9,1799,1515.4,1791.8,1503z"/>
		<g>
			<path class="st49" d="M2403.7,850.5h-185c-25.4,0-46.1-20.8-46.1-46.1v-160c0-25.4,20.8-46.1,46.1-46.1h185
				c25.4,0,46.1,20.8,46.1,46.1v160C2449.9,829.7,2429.1,850.5,2403.7,850.5z"/>
			<g>
				<path class="st38" d="M2237.6,722.2c7.7,20.3,73.7,73.6,73.7,73.6s21.5-17.5,41.4-36.3c14.9-13.9,28.9-28.6,32.2-37.3
					c7.8-20.2-0.5-49-29.3-53.9c-28.7-4.9-44.3,25.2-44.3,25.2s-15.5-30.1-44.4-25.2c-5,0.9-9.4,2.4-13.2,4.6
					C2235.7,683,2231.2,705.6,2237.6,722.2z"/>
			</g>
		</g>
		<g>
			<path class="st49" d="M103.3,1507.5h424.5c33.8,0,61.5,27.7,61.5,61.5v186.2c0,31.1-25.4,56.5-56.5,56.5h-10.9l20.5,86.4
				L414,1811.8H99.6c-33.8,0-61.5-27.7-61.5-61.5v-177.7C38.1,1536.8,67.5,1507.5,103.3,1507.5z"/>
			<path class="st43" d="M91.9,1642.7h442.6c6,0,11-4.9,11-11l0,0c0-6-4.9-11-11-11H91.9c-6,0-11,4.9-11,11l0,0
				C80.9,1637.8,85.9,1642.7,91.9,1642.7z"/>
			<path class="st43" d="M91.9,1691.8h442.6c6,0,11-4.9,11-11l0,0c0-6-4.9-11-11-11H91.9c-6,0-11,4.9-11,11l0,0
				C80.9,1686.8,85.9,1691.8,91.9,1691.8z"/>
			<path class="st43" d="M91.9,1740.8h442.6c6,0,11-4.9,11-11l0,0c0-6-4.9-11-11-11H91.9c-6,0-11,4.9-11,11l0,0
				C80.9,1735.9,85.9,1740.8,91.9,1740.8z"/>
			<path class="st43" d="M333.1,1566.5H521c7.2,0,13-5.9,13-13l0,0c0-7.2-5.9-13-13-13H333.1c-7.2,0-13,5.9-13,13l0,0
				C320,1560.6,325.9,1566.5,333.1,1566.5z"/>
			<path class="st43" d="M168.3,1566.5h119.7c3.9,0,7-3.2,7-7v-12.1c0-3.9-3.2-7-7-7H168.3c-3.9,0-7,3.2-7,7v12.1
				C161.2,1563.3,164.4,1566.5,168.3,1566.5z"/>
		</g>
		<g>
			<polygon class="st50" points="2236.4,1602 2503.4,1689.3 2343.4,1533.4 2327.2,1571.5 2258.5,1571.8 			"/>
			<polygon class="st1" points="2503.4,1689.3 2296.1,1531.6 2074.7,1481 			"/>
			<polygon class="st1" points="2343.4,1533.4 2503.4,1689.3 2396.8,1470.9 			"/>
		</g>
		<g>
			<polygon class="st50" points="661.9,607.2 412.3,642.8 577.9,530 586.3,566.2 647,577.1 			"/>
			<polygon class="st1" points="412.3,642.8 620,535.8 823.5,525.5 			"/>
			<polygon class="st1" points="577.9,530 412.3,642.8 540.5,466.4 			"/>
		</g>
		<path class="st1" d="M1053.7,1021.3c0,32.6-11,62.5-29.4,86.5c-6.1,7.9-13.1,15.2-20.7,21.7c-24.7,21-56.7,33.6-91.6,33.6
			c-31.8,0-61.1-10.4-84.7-28.1c-10.4-7.8-19.7-16.9-27.7-27.2c-18.5-23.9-29.4-53.9-29.4-86.5c0-78.3,63.5-141.8,141.8-141.8
			S1053.7,943,1053.7,1021.3z"/>
		<path class="st41" d="M968.9,1088.3c-0.4-0.4-0.7-0.8-1.1-1.2c-1.6-1.2-3.3-2-9.8-3.2c-3.3-0.6-8-1.2-14.5-2.1
			c0,0-1.4-0.2-2.2-0.2c-0.5,0-1-0.1-1.6-0.1c-1.9-1-2.4-8.8-2.4-17c0-0.6,0-1.2,0-1.9c0-3.1,0.1-6.2,0.2-8.9c0-0.2,0-0.3,0-0.5
			c4.1,0.3,6.7,0.3,6.7,0.3c7.6-0.6,12.3-20.9,14-37.2c0,0,3.7-9,3.7-18.7c0-5.5-1.2-11.2-4.8-15.6c-1.9-2.3-3.7-3.8-5.3-4.8
			c-0.5-0.5-1-0.9-1.4-1.3c-7-7.8-35.6-37-54.3-20.1c-0.5-1.7-6.6-20.7-36.1-14.5c1.8-0.2,14.9-1.4,18.7,3.9
			c-0.5-0.2-12-5.3-19.2-0.9c-3.3,2-5.4,6.2-6.6,10.7c0,0,0,0.1,0,0.1c0,0,0,0,0,0.1v0c0,0,0,0.1,0,0.1c-0.1,0.6-0.3,1.2-0.4,1.8
			c0,0.1,0,0.2-0.1,0.3c0,0,0,0,0,0.1c0,0,0,0,0,0c-0.9,4.6-0.9,9-0.4,11.2c1.1,4.6,9.3,18.4,14.7,18.4c2.1,0,4.2-0.7,6.2-1.5
			c-0.8,2.4-1.6,5.1-2.2,8c-5.7,27,12.2,47.5,21.5,42.5c6-3.2,10.5,7.2,10.5,7.2l0,0c-0.9,19.8-6.3,32.7-10.3,35.9
			c-1.4,0.2-4.6,0.5-8.4,1.2v0c0,0-13.7,1.5-24.1,6c-0.1,0-0.2,0.1-0.2,0.1c-2.4,1-4.4,2.1-5.9,3.3c0,0,0,0,0,0v0
			c-0.8,0.6-1.4,1.3-1.9,2c-0.2,0.3-0.5,0.6-0.6,0.9c-3.5,6.6-7,16.6-10.4,28.3c20,15,44.9,23.8,71.8,23.8
			c29.6,0,56.8-10.7,77.7-28.5C982.5,1100.2,973.7,1092,968.9,1088.3z"/>
		<path class="st1" d="M1315.1,949.9h-167.5c-3.8,0-6.9-3.1-6.9-6.9v-11.3c0-3.8,3.1-6.9,6.9-6.9h167.5c3.8,0,6.9,3.1,6.9,6.9V943
			C1322,946.8,1318.9,949.9,1315.1,949.9z"/>
		<g>
			<path class="st1" d="M1313.8,1040.3h-165c-4.5,0-8.2-3.7-8.2-8.2l0,0c0-4.5,3.7-8.2,8.2-8.2h165c4.5,0,8.2,3.7,8.2,8.2l0,0
				C1322,1036.6,1318.3,1040.3,1313.8,1040.3z"/>
			<path class="st1" d="M1242.8,1079.1h-97.9c-2.4,0-4.3-1.9-4.3-4.3v-7.8c0-2.4,1.9-4.3,4.3-4.3h97.9c2.4,0,4.3,1.9,4.3,4.3v7.8
				C1247.1,1077.2,1245.1,1079.1,1242.8,1079.1z"/>
			<path class="st1" d="M1434.6,1079.1h-156.7c-2.9,0-5.4-2.4-5.4-5.4v-5.7c0-2.9,2.4-5.4,5.4-5.4h156.7c2.9,0,5.4,2.4,5.4,5.4v5.7
				C1439.9,1076.7,1437.5,1079.1,1434.6,1079.1z"/>
			<path class="st1" d="M1573.7,1040.3h-216.3c-4.5,0-8.2-3.7-8.2-8.2l0,0c0-4.5,3.7-8.2,8.2-8.2h216.3c4.5,0,8.2,3.7,8.2,8.2l0,0
				C1581.9,1036.6,1578.3,1040.3,1573.7,1040.3z"/>
			<path class="st1" d="M1313.8,1117.9h-165c-4.5,0-8.2-3.7-8.2-8.2l0,0c0-4.5,3.7-8.2,8.2-8.2h165c4.5,0,8.2,3.7,8.2,8.2l0,0
				C1322,1114.2,1318.3,1117.9,1313.8,1117.9z"/>
			<path class="st1" d="M1573.7,1117.9h-216.3c-4.5,0-8.2-3.7-8.2-8.2l0,0c0-4.5,3.7-8.2,8.2-8.2h216.3c4.5,0,8.2,3.7,8.2,8.2l0,0
				C1581.9,1114.2,1578.3,1117.9,1573.7,1117.9z"/>
		</g>
		<path class="st1" d="M1471.6,949.9h-121.2c-3.3,0-5.9-2.7-5.9-5.9v-13.3c0-3.3,2.7-5.9,5.9-5.9h121.2c3.3,0,5.9,2.7,5.9,5.9V944
			C1477.5,947.2,1474.9,949.9,1471.6,949.9z"/>
		<g>
			<path class="st47" d="M1325.3,1757.5h-119.1c-2.7,0-4.9-2.2-4.9-4.9v-8.1c0-2.7,2.2-4.9,4.9-4.9h119.1c2.7,0,4.9,2.2,4.9,4.9v8.1
				C1330.2,1755.3,1328,1757.5,1325.3,1757.5z"/>
			<g>
				<path class="st47" d="M1324.4,1803.3h-117.3c-3.2,0-5.8-2.6-5.8-5.8l0,0c0-3.2,2.6-5.8,5.8-5.8h117.3c3.2,0,5.8,2.6,5.8,5.8l0,0
					C1330.2,1800.6,1327.6,1803.3,1324.4,1803.3z"/>
				<path class="st47" d="M1273.9,1830.9h-69.6c-1.7,0-3-1.4-3-3v-5.6c0-1.7,1.4-3,3-3h69.6c1.7,0,3,1.4,3,3v5.6
					C1276.9,1829.5,1275.6,1830.9,1273.9,1830.9z"/>
				<path class="st47" d="M1410.2,1830.9h-111.4c-2.1,0-3.8-1.7-3.8-3.8v-4c0-2.1,1.7-3.8,3.8-3.8h111.4c2.1,0,3.8,1.7,3.8,3.8v4
					C1414.1,1829.1,1412.3,1830.9,1410.2,1830.9z"/>
				<path class="st47" d="M1509.2,1803.3h-153.8c-3.2,0-5.8-2.6-5.8-5.8l0,0c0-3.2,2.6-5.8,5.8-5.8h153.8c3.2,0,5.8,2.6,5.8,5.8l0,0
					C1515,1800.6,1512.4,1803.3,1509.2,1803.3z"/>
				<path class="st47" d="M1324.4,1858.4h-117.3c-3.2,0-5.8-2.6-5.8-5.8l0,0c0-3.2,2.6-5.8,5.8-5.8h117.3c3.2,0,5.8,2.6,5.8,5.8l0,0
					C1330.2,1855.8,1327.6,1858.4,1324.4,1858.4z"/>
				<path class="st47" d="M1509.2,1858.4h-153.8c-3.2,0-5.8-2.6-5.8-5.8l0,0c0-3.2,2.6-5.8,5.8-5.8h153.8c3.2,0,5.8,2.6,5.8,5.8l0,0
					C1515,1855.8,1512.4,1858.4,1509.2,1858.4z"/>
			</g>
			<path class="st47" d="M1436.6,1757.5h-86.2c-2.3,0-4.2-1.9-4.2-4.2v-9.5c0-2.3,1.9-4.2,4.2-4.2h86.2c2.3,0,4.2,1.9,4.2,4.2v9.5
				C1440.8,1755.6,1438.9,1757.5,1436.6,1757.5z"/>
		</g>
		<g>
			<path class="st47" d="M1401.3,644h-119.1c-2.7,0-4.9-2.2-4.9-4.9V631c0-2.7,2.2-4.9,4.9-4.9h119.1c2.7,0,4.9,2.2,4.9,4.9v8.1
				C1406.2,641.8,1404,644,1401.3,644z"/>
			<g>
				<path class="st47" d="M1400.3,689.7h-117.3c-3.2,0-5.8-2.6-5.8-5.8l0,0c0-3.2,2.6-5.8,5.8-5.8h117.3c3.2,0,5.8,2.6,5.8,5.8l0,0
					C1406.2,687.1,1403.5,689.7,1400.3,689.7z"/>
				<path class="st47" d="M1349.8,717.3h-69.6c-1.7,0-3-1.4-3-3v-5.6c0-1.7,1.4-3,3-3h69.6c1.7,0,3,1.4,3,3v5.6
					C1352.9,716,1351.5,717.3,1349.8,717.3z"/>
				<path class="st47" d="M1486.2,717.3h-111.4c-2.1,0-3.8-1.7-3.8-3.8v-4c0-2.1,1.7-3.8,3.8-3.8h111.4c2.1,0,3.8,1.7,3.8,3.8v4
					C1490,715.6,1488.3,717.3,1486.2,717.3z"/>
				<path class="st47" d="M1585.2,689.7h-153.8c-3.2,0-5.8-2.6-5.8-5.8l0,0c0-3.2,2.6-5.8,5.8-5.8h153.8c3.2,0,5.8,2.6,5.8,5.8l0,0
					C1591,687.1,1588.4,689.7,1585.2,689.7z"/>
			</g>
			<path class="st47" d="M1512.5,644h-86.2c-2.3,0-4.2-1.9-4.2-4.2v-9.5c0-2.3,1.9-4.2,4.2-4.2h86.2c2.3,0,4.2,1.9,4.2,4.2v9.5
				C1516.7,642.1,1514.8,644,1512.5,644z"/>
		</g>
		<g>
			<path class="st45" d="M1502.7,1417.2h-130.4c-3,0-5.4-2.4-5.4-5.4v-8.8c0-3,2.4-5.4,5.4-5.4h130.4c3,0,5.4,2.4,5.4,5.4v8.8
				C1508.1,1414.7,1505.6,1417.2,1502.7,1417.2z"/>
			<g>
				<path class="st45" d="M1501.7,1467.3h-128.4c-3.5,0-6.4-2.9-6.4-6.4l0,0c0-3.5,2.9-6.4,6.4-6.4h128.4c3.5,0,6.4,2.9,6.4,6.4l0,0
					C1508.1,1464.4,1505.2,1467.3,1501.7,1467.3z"/>
				<path class="st45" d="M1446.4,1497.5h-76.2c-1.8,0-3.3-1.5-3.3-3.3v-6.1c0-1.8,1.5-3.3,3.3-3.3h76.2c1.8,0,3.3,1.5,3.3,3.3v6.1
					C1449.7,1496,1448.2,1497.5,1446.4,1497.5z"/>
				<path class="st45" d="M1595.7,1497.5h-122c-2.3,0-4.2-1.9-4.2-4.2v-4.4c0-2.3,1.9-4.2,4.2-4.2h122c2.3,0,4.2,1.9,4.2,4.2v4.4
					C1599.9,1495.6,1598,1497.5,1595.7,1497.5z"/>
				<path class="st45" d="M1704,1467.3h-168.4c-3.5,0-6.4-2.9-6.4-6.4l0,0c0-3.5,2.9-6.4,6.4-6.4H1704c3.5,0,6.4,2.9,6.4,6.4l0,0
					C1710.4,1464.4,1707.5,1467.3,1704,1467.3z"/>
				<path class="st45" d="M1501.7,1527.7h-128.4c-3.5,0-6.4-2.9-6.4-6.4l0,0c0-3.5,2.9-6.4,6.4-6.4h128.4c3.5,0,6.4,2.9,6.4,6.4l0,0
					C1508.1,1524.8,1505.2,1527.7,1501.7,1527.7z"/>
				<path class="st45" d="M1704,1527.7h-168.4c-3.5,0-6.4-2.9-6.4-6.4l0,0c0-3.5,2.9-6.4,6.4-6.4H1704c3.5,0,6.4,2.9,6.4,6.4l0,0
					C1710.4,1524.8,1707.5,1527.7,1704,1527.7z"/>
			</g>
			<g>
				<path class="st45" d="M1501.7,1559.1h-128.4c-3.5,0-6.4-2.9-6.4-6.4l0,0c0-3.5,2.9-6.4,6.4-6.4h128.4c3.5,0,6.4,2.9,6.4,6.4l0,0
					C1508.1,1556.3,1505.2,1559.1,1501.7,1559.1z"/>
				<path class="st45" d="M1704,1559.1h-168.4c-3.5,0-6.4-2.9-6.4-6.4l0,0c0-3.5,2.9-6.4,6.4-6.4H1704c3.5,0,6.4,2.9,6.4,6.4l0,0
					C1710.4,1556.3,1707.5,1559.1,1704,1559.1z"/>
			</g>
			<path class="st45" d="M1624.5,1417.2h-94.4c-2.5,0-4.6-2.1-4.6-4.6v-10.4c0-2.5,2.1-4.6,4.6-4.6h94.4c2.5,0,4.6,2.1,4.6,4.6v10.4
				C1629.1,1415.1,1627,1417.2,1624.5,1417.2z"/>
		</g>
		<g>
			<path class="st1" d="M1203.2,551l-8.7,6.3l-8.8-6.2c1.9-2.7,5.1-4.5,8.8-4.5C1198.1,546.5,1201.3,548.2,1203.2,551z"/>
			<g>
				<path class="st1" d="M1194.5,531.2c-8.8,0-16.5,4.4-21.2,11l5.5,3.9c3.5-4.9,9.2-8.1,15.7-8.1c6.4,0,12.1,3.2,15.6,8l5.5-4
					C1210.9,535.5,1203.2,531.2,1194.5,531.2z"/>
			</g>
			<g>
				<path class="st1" d="M1194.5,502.3c-18.5,0-34.9,9.2-44.8,23.3l5.5,3.9c8.7-12.3,23.1-20.4,39.3-20.4c16.1,0,30.4,7.9,39.1,20.1
					l5.5-4C1229.1,511.3,1212.9,502.3,1194.5,502.3z"/>
			</g>
			<g>
				<path class="st1" d="M1194.5,518.1c-13.2,0-24.9,6.5-32,16.5l5.5,3.9c5.9-8.2,15.5-13.6,26.4-13.6c10.8,0,20.4,5.3,26.3,13.4
					l5.5-3.9C1219.2,524.5,1207.6,518.1,1194.5,518.1z"/>
			</g>
		</g>
		<path class="st1" d="M1145.6,1473.8c0,12.8,4.3,24.6,11.6,34c2.4,3.1,5.1,6,8.1,8.5c3,2.5,6.2,4.7,9.7,6.6
			c7.8,4.2,16.8,6.6,26.3,6.6c11.9,0,22.9-3.7,31.9-10.1c0.5-0.3,0.9-0.6,1.4-1c4.1-3,7.7-6.6,10.9-10.7c7.3-9.4,11.6-21.2,11.6-34
			c0-30.7-24.9-55.7-55.7-55.7C1170.5,1418.1,1145.6,1443,1145.6,1473.8z"/>
		<path class="st47" d="M1216.3,1509.5l-5.1-4.5c-0.4,0.1-0.9,0.2-1.3,0.2c-0.9-0.6-1.9-1.3-3-1.9c0.3-2.1,0.6-4,0.9-5.7
			c0.8-6,0.9-9.6,0.9-10.1c2.7-0.1,4.6-0.4,4.6-0.4c5.1-1.2,5.4-18.7,4.2-27.9c1,0,1.9-0.1,2.9-0.5c3.9-1.7,4.1-7.6,4.1-7.6
			s-1.1,2.1-2.8,2.8c0,0,6.5-8.9-1-15c-7.5-6.1-15.2-2.1-19.6-1.9c-9.6,0.6-15.8,1.2-19,7.5c-3.1,6.2-1.9,23.4,4.1,29.7
			c0.1,0.6,0.2,1.2,0.3,1.7c0.4,2.3,1.2,4.1,2.4,5.6c-1.3,7.4-4.4,12.9-7.1,16.5c-1.9,1.4-3.5,3.3-5.1,5.5c0,0-0.1,0.1-0.1,0.1
			s0,0,0,0c-2.9,4.1-5.3,9.5-7.2,15.8c0,0,0,0.1,0,0.1c3.1,2.2,6.6,4.1,10.2,5.6c0.2,0.1,0.5,0.2,0.7,0.3c0.1,0,0.1,0,0.2,0.1
			c0.4,0.2,0.8,0.3,1.2,0.5c0.9,0.4,1.9,0.7,2.8,1c1,0.3,2,0.6,3,0.9c0.5,0.1,0.9,0.2,1.4,0.3c0.4,0.1,0.8,0.2,1.2,0.3
			c0.1,0,0.1,0,0.2,0c0.3,0.1,0.6,0.1,0.8,0.2c0.6,0.1,1.3,0.2,2,0.3c0.1,0,0.3,0,0.5,0.1c0.4,0.1,0.7,0.1,1.1,0.1
			c0.5,0.1,1,0.1,1.5,0.2c0.6,0.1,1.2,0.1,1.7,0.1c0.5,0,1.1,0.1,1.7,0.1c0.6,0,1.2,0,1.7,0c0.6,0,1.2,0,1.9,0c0.1,0,0.1,0,0.2,0
			c0.1,0,0.3,0,0.5,0c0.3,0,0.6,0,0.9,0c0,0,0.1,0,0.1,0c0.6,0,1.2-0.1,1.7-0.1c7.5-0.7,14.6-2.9,21-6.3
			C1224.2,1517.3,1220.1,1513,1216.3,1509.5z"/>
		<path class="st1" d="M1692.3,1797.4c0,12.9,4.3,24.7,11.6,34.2c2.4,3.1,5.2,6,8.2,8.6c9.8,8.3,22.4,13.3,36.2,13.3
			c12.6,0,24.1-4.1,33.5-11.1c4.1-3.1,7.8-6.7,10.9-10.8c7.3-9.5,11.6-21.3,11.6-34.2c0-31-25.1-56.1-56.1-56.1
			S1692.3,1766.5,1692.3,1797.4z"/>
		<path class="st38" d="M1777,1829.2c-0.1-0.1-0.2-0.3-0.3-0.4c-0.2-0.3-0.5-0.6-0.9-0.9l0,0c-0.7-0.6-1.7-1.1-2.8-1.5
			c0,0-0.1,0-0.1,0c-4.9-2.1-11.3-2.8-11.3-2.8c-1.8-0.3-3.3-0.5-3.9-0.5c-1.9-1.5-4.4-7.5-4.8-16.7l0,0c0,0,2.1-4.9,4.9-3.4
			c4.3,2.4,12.7-7.2,10-19.8c-0.3-1.4-0.6-2.6-1-3.7c0.9,0.4,1.9,0.7,2.9,0.7c2.5,0,6.3-6.4,6.8-8.6c0.5-2.2,0-9.3-3.5-11.4
			c-3.4-2.1-8.7,0.3-8.9,0.4c1.7-2.4,7.6-1.9,8.7-1.8c-13.7-2.8-16.6,6-16.8,6.7c-8.7-7.9-22.1,5.7-25.3,9.4
			c-0.2,0.2-0.4,0.4-0.7,0.6c-0.7,0.4-1.6,1.1-2.5,2.2c-1.7,2.1-2.3,4.7-2.3,7.3c0,4.5,1.7,8.7,1.7,8.7c0.8,7.6,3,17.1,6.5,17.4
			c0,0,1.2,0,3.1-0.1c0,0.1,0,0.2,0,0.2c0.1,1.3,0.1,2.7,0.1,4.2v0.9c0,3.8-0.2,7.5-1.1,7.9c-0.3,0-0.5,0-0.8,0.1
			c-0.4,0-1,0.1-1,0.1c-3.1,0.4-5.2,0.7-6.8,1c-3.1,0.5-3.8,0.9-4.6,1.5c-0.2,0.2-0.4,0.4-0.5,0.6c-2.2,1.7-6.3,5.5-9.9,13
			c9.8,8.3,22.4,13.3,36.2,13.3c12.6,0,24.1-4.1,33.5-11.1C1780.3,1836.9,1778.7,1832.3,1777,1829.2z"/>
		<path class="st1" d="M1692.3,670.6c0,12.9,4.3,24.7,11.6,34.2c2.4,3.1,5.2,6,8.2,8.6c9.8,8.3,22.4,13.3,36.2,13.3
			c12.6,0,24.1-4.1,33.5-11.1c4.1-3.1,7.8-6.7,10.9-10.8c7.3-9.5,11.6-21.3,11.6-34.2c0-31-25.1-56.1-56.1-56.1
			S1692.3,639.7,1692.3,670.6z"/>
		<path class="st38" d="M1777,702.4c-0.1-0.1-0.2-0.3-0.3-0.4c-0.2-0.3-0.5-0.6-0.9-0.9l0,0c-0.7-0.6-1.7-1.1-2.8-1.5
			c0,0-0.1,0-0.1,0c-4.9-2.1-11.3-2.8-11.3-2.8v0c-1.8-0.3-3.3-0.5-3.9-0.5c-0.5-0.4-0.9-1-1.4-1.8v0c-1.6-2.7-3.1-7.9-3.4-14.9l0,0
			c0,0,2.1-4.9,4.9-3.3c4.3,2.4,12.7-7.2,10-19.8c-0.3-1.4-0.6-2.6-1-3.7c0.9,0.4,1.9,0.7,2.9,0.7c2.5,0,6.3-6.4,6.8-8.6
			c0.5-2.2,0-9.3-3.5-11.4c-3.4-2.1-8.7,0.3-8.9,0.4c1.7-2.4,7.6-1.9,8.7-1.8c-13.7-2.9-16.6,6-16.8,6.7c-8.7-7.9-22.1,5.8-25.3,9.4
			c-0.2,0.2-0.4,0.4-0.7,0.6c-0.7,0.4-1.6,1.1-2.5,2.2c-1.7,2.1-2.3,4.7-2.3,7.3c0,4.5,1.7,8.7,1.7,8.7c0.8,7.6,3,17.1,6.5,17.4
			c0,0,1.2,0,3.1-0.1c0,0.1,0,0.1,0,0.2c0.1,1.3,0.1,2.7,0.1,4.2v0.9c0,3.8-0.2,7.5-1.1,7.9c-0.3,0-0.5,0-0.8,0.1
			c-0.4,0-1,0.1-1,0.1c-3.1,0.4-5.2,0.7-6.8,1c-3.1,0.5-3.8,0.9-4.6,1.5c-0.2,0.2-0.4,0.4-0.5,0.6c-2.2,1.7-6.3,5.6-9.9,13
			c0.5,0.5,1.1,0.9,1.6,1.3c0.1,0.1,0.2,0.1,0.3,0.2c0.4,0.3,0.8,0.6,1.2,0.9c0.3,0.2,0.6,0.5,0.9,0.7c0.3,0.2,0.6,0.4,0.9,0.6
			c0.4,0.3,0.9,0.6,1.4,0.9c0.3,0.2,0.6,0.4,0.9,0.6c0.4,0.2,0.8,0.5,1.2,0.7c0.4,0.2,0.9,0.5,1.3,0.7c0,0,0.1,0,0.1,0.1
			c0,0,0,0,0.1,0h0c0.1,0,0.1,0.1,0.2,0.1c0.4,0.2,0.7,0.4,1.1,0.5c0,0,0,0,0.1,0c0.1,0.1,0.2,0.1,0.3,0.2c0.2,0.1,0.4,0.2,0.6,0.3
			c0.2,0.1,0.4,0.2,0.6,0.3c0.4,0.2,0.9,0.4,1.4,0.6c0.5,0.2,0.9,0.4,1.4,0.6c0.2,0.1,0.4,0.2,0.6,0.3c0.2,0.1,0.4,0.2,0.6,0.2
			c0.4,0.2,0.9,0.3,1.3,0.5c0.5,0.2,0.9,0.3,1.4,0.4c0.4,0.1,0.8,0.2,1.1,0.4c0,0,0.1,0,0.1,0c0.2,0.1,0.5,0.1,0.7,0.2
			c1.3,0.4,2.7,0.7,4.1,1c0.6,0.1,1.2,0.2,1.8,0.3c0.2,0,0.3,0.1,0.5,0.1c0,0,0.1,0,0.1,0c0,0,0,0,0.1,0c0.4,0.1,0.8,0.1,1.2,0.1
			c0.1,0,0.2,0,0.2,0c0.1,0,0.1,0,0.2,0c0.4,0.1,0.7,0.1,1.1,0.1c0.1,0,0.1,0,0.2,0c0.1,0,0.2,0,0.3,0c0.7,0.1,1.3,0.1,2,0.1h0.1
			c0.2,0,0.4,0,0.6,0c0.1,0,0.3,0,0.4,0c0.6,0,1.3,0,1.9,0c12.6,0,24.1-4.1,33.5-11.1C1780.3,710.1,1778.7,705.5,1777,702.4z"/>
		<path class="st39" d="M2453.1,2896.8l-201.9,104.5h-134.4c-32.4-21.7-200.8-136.6-270.4-222.2c-14.8-18.1-68.8-174.5-110.2-301.4
			v-0.1c5.5,16.9,121.3,263.5,154.3,291.5c33,28,206.1,191.3,253.9,189.6c46.3-1.6,292.9-58.3,308.2-61.8
			C2452.7,2896.9,2452.9,2896.9,2453.1,2896.8z"/>
		<path class="st51" d="M2859.4,3001.3h-728c36.5-14.3,176.2-67.7,321-104.4c0.2,0,0.5-0.1,0.7-0.2
			c124.4-31.5,252.4-50.5,321.9-21.9l0.5,0.7L2859.4,3001.3z"/>
		<path class="st39" d="M1686.6,2039.7C1686.6,2039.7,1686.6,2039.7,1686.6,2039.7c12.3-4.5,29.5-7.5,37.9,6.5
			c13,21.8-35.4,213.9-41.5,238.1L1686.6,2039.7z"/>
		<path class="st40" d="M1690.3,1936.4l-4.2,116.2c0,0,24.4,4,38.3-6.4C1738.4,2035.9,1731,1935.1,1690.3,1936.4z"/>
		<path class="st43" d="M1201.3,2609.4c-70,14.3-220.7-40.6-220.7-40.6l24.3-234.9L834.5,2529c-86.7-32.3-222.3-116.5-302.9-168.9
			c206.5-22.5,360.6-226.3,360.6-226.3c143.1,77.5,304.7,122.8,304.7,122.8C1196.9,2396.3,1201.3,2609.4,1201.3,2609.4z"/>
		<path class="st38" d="M721.2,2396.1c0.1-15.7,13-28.2,28.6-28.1c15.7,0.1,28.2,13,28.1,28.6c-0.1,15.7-13,28.2-28.6,28.1
			C733.6,2424.5,721.1,2411.7,721.2,2396.1z"/>
	</g>
</g>
</svg>
