<?xml version="1.0" encoding="utf-8"?>
<!-- Generator: Adobe Illustrator 23.0.1, SVG Export Plug-In . SVG Version: 6.00 Build 0)  -->
<svg version="1.1" xmlns="http://www.w3.org/2000/svg" xmlns:xlink="http://www.w3.org/1999/xlink" x="0px" y="0px"
	 viewBox="0 0 2859.4 3013.7" style="enable-background:new 0 0 2859.4 3013.7;" xml:space="preserve">
<style type="text/css">
	.st0{fill:#91B3FA;}
	.st1{fill:#FFFFFF;}
	.st2{fill:#BDD0FB;}
	.st3{fill:url(#SVGID_1_);}
	.st4{fill:url(#SVGID_2_);}
	.st5{opacity:0.5;fill:#FFFFFF;}
	.st6{opacity:0.86;}
	.st7{opacity:0.86;fill:#FFFFFF;}
	.st8{opacity:0.7;fill:#FFFFFF;}
	.st9{fill:url(#SVGID_3_);}
	.st10{fill:url(#SVGID_4_);}
	.st11{fill:url(#SVGID_5_);}
	.st12{fill:url(#SVGID_6_);}
	.st13{fill:url(#SVGID_7_);}
	.st14{fill:url(#SVGID_8_);}
	.st15{opacity:0.8;fill:#FFFFFF;}
	.st16{fill:url(#SVGID_9_);}
	.st17{fill:url(#SVGID_10_);}
	.st18{fill:url(#SVGID_11_);}
	.st19{fill:url(#SVGID_12_);}
	.st20{fill:url(#SVGID_13_);}
	.st21{fill:url(#SVGID_14_);}
	.st22{fill:url(#SVGID_15_);}
	.st23{fill:url(#SVGID_16_);}
	.st24{fill:url(#SVGID_17_);}
	.st25{fill:url(#SVGID_18_);}
	.st26{fill:url(#SVGID_19_);}
	.st27{fill:url(#SVGID_20_);}
	.st28{fill:url(#SVGID_21_);}
	.st29{fill:url(#SVGID_22_);}
	.st30{fill:url(#SVGID_23_);}
	.st31{fill:url(#SVGID_24_);}
	.st32{fill:url(#SVGID_25_);}
	.st33{fill:url(#SVGID_26_);}
	.st34{fill:url(#SVGID_27_);}
	.st35{fill:url(#SVGID_28_);}
	.st36{fill:url(#SVGID_29_);}
	.st37{fill:#FFB27D;}
	.st38{fill:#F99746;}
	.st39{fill:#EFA26F;}
	.st40{fill:#FFC197;}
	.st41{fill:#2B478B;}
	.st42{fill:#C0D8FB;}
	.st43{fill:#CBE1FD;}
	.st44{fill:#FFD3B6;}
	.st45{fill:#ED7D2B;}
	.st46{fill:#DCEAFF;}
	.st47{fill:#699DEE;}
	.st48{fill:#9ABFF6;}
	.st49{fill:#DFEBFD;}
	.st50{fill:#9EC3F6;}
	.st51{fill:#D2E3FC;}
</style>
<g id="Background">
</g>
<g id="Illustration">
	<g>
		<g>
			<path class="st0" d="M2559.4,260.7c3.8-11.8-9.9-21.4-19.8-14c-100.6,75.1-348.2,306-344.6,759.1
				c4.6,568.5-135.5,759.8-295.1,868.1c0,0,206.3-36,355.6-229.3C2621.9,1169.8,2491.6,469.9,2559.4,260.7z"/>
			<path class="st1" d="M2470.3,428c-18.5,61.1-35.7,122.6-50.7,184.6c-15.3,61.9-28.7,124.3-40.2,186.9
				c-11.2,62.7-21.3,125.6-28.6,188.9c-7.6,63.2-12.6,126.7-17.3,190.4c-5.1,63.7-9.8,127.9-21.1,191.8
				c-11.2,63.8-30.3,127.2-60.3,185.3c-7.5,14.5-15.3,28.9-23.9,42.7c-8.3,14-17.3,27.5-26.4,41c-18.5,26.8-38.8,52.4-60.9,76.3
				c-44.4,47.8-96,88.8-151.5,122.2c-5.8,3.5-13.4,1.6-16.9-4.2c-3.4-5.7-1.7-13.2,3.9-16.7l0,0c13.3-8.5,26.4-17.1,39.2-26.3
				c6.4-4.5,12.7-9.3,19-13.9c6.1-4.9,12.4-9.5,18.4-14.6c24.2-19.9,47-41.4,68.1-64.6c42.4-46,78.1-98.6,106.9-154
				c14.1-27.9,26.1-56.8,35.9-86.5c9.7-29.7,17.2-60.2,22.9-91.2c11.5-62,16.7-125.4,22.2-189.1c5.6-63.6,11.7-127.6,20.4-191.1
				c4.3-31.8,9.1-63.5,14.5-95.1c2.6-15.8,5.5-31.6,8.4-47.4c3-15.7,6.2-31.5,9.4-47.2c13.1-62.8,28.1-125.1,45.1-186.9
				c17.3-61.7,36.2-122.9,57.4-183.3c0.6-1.7,2.5-2.6,4.2-2C2469.9,424.5,2470.8,426.3,2470.3,428z"/>
		</g>
		<g>
			<g>
				<path class="st2" d="M2083.5,2201.9c2.3,22.7,27,35.6,47.1,24.9c110.9-59.2,409.2-255.1,491.9-681.1
					c69.8-359.7,141.9-548.2,180.5-631.4c8.2-17.6-10.9-35.4-27.9-26.1C2587.2,990.9,2000.2,1380.6,2083.5,2201.9z"/>
				<path class="st1" d="M2113.3,2209.6c0.4,0.4,0.8,0.8,1.3,1.2c3.9,2.9,9.5,2.1,12.4-1.8c3.3-4.5,333.7-452.5,453.4-948.3
					c1.2-4.8-1.8-9.6-6.6-10.7c-4.8-1.2-9.6,1.8-10.7,6.6c-118.8,492.2-447.1,937.5-450.4,941.9
					C2110.2,2201.8,2110.5,2206.5,2113.3,2209.6z"/>
			</g>
		</g>
		<g>
			<linearGradient id="SVGID_1_" gradientUnits="userSpaceOnUse" x1="604.738" y1="1713.8467" x2="2296.7278" y2="1713.8467">
				<stop  offset="0" style="stop-color:#09005D"/>
				<stop  offset="1" style="stop-color:#1A0F91"/>
			</linearGradient>
			<path class="st3" d="M635.7,579.3c-10,402.6-42.3,1791.1-26.9,2283.2c1.6,52.1,43.4,94,95.6,95.7
				c257.8,8.4,999.5,29.8,1421.2,12.1c87.8-3.7,157.7-74.8,159.5-162.7c8.8-422.5,28.1-1611-17.9-2155.4
				c-5.5-65.2-56.7-117.2-121.8-123.7c-280.8-28.1-1026.5-96.7-1390.9-73.1C688.9,459.7,637.4,513.5,635.7,579.3z"/>
			<linearGradient id="SVGID_2_" gradientUnits="userSpaceOnUse" x1="693.3748" y1="1635.6725" x2="2208.0911" y2="1635.6725">
				<stop  offset="0" style="stop-color:#4F52FF"/>
				<stop  offset="1" style="stop-color:#4042E2"/>
			</linearGradient>
			<path class="st4" d="M740.5,704.4c-14.1,329.7-58.5,1426.5-44.4,1832.1c2.1,59.3,48.8,107.2,108,110.7
				c243.8,14.3,869.1,45.7,1226.7,17.1c64.4-5.2,114.9-57.2,118.4-121.7c18.1-336.4,70.2-1357.6,56.6-1758.6
				c-2.2-64-51.7-116.2-115.5-121.9c-263.8-23.7-941.2-80-1245.1-63.4C788.3,601.6,742.9,647.3,740.5,704.4z"/>
			<path class="st5" d="M1272.9,525.8L1272.9,525.8c0,12.4,9.6,22.5,22,23.2c60.9,3.2,232.4,12.2,309.1,16.7
				c15.1,0.9,27-12.7,24.1-27.6l-0.5-2.5c-2-10.1-10.4-17.8-20.7-18.7c-51.8-4.7-208.2-17.9-311.8-14.2
				C1282.7,503,1272.9,513.3,1272.9,525.8z"/>
		</g>
		<path class="st0" d="M1982.8,1775.5H886.8c-39.4,0-71.4-36.3-71.4-81.1V791.9c0-60,43.7-108.1,96.4-106.2l1091.8,40.9
			c92.6,6.7,91.3,106.1,91.3,176.9l0,744.3C2095,1718.3,2044.8,1775.5,1982.8,1775.5z"/>
		<g class="st6">
			<path class="st1" d="M2011.2,1053.3h-711.4c-5.4,0-9.8-4.4-9.8-9.8v-50.3c0-5.4,4.4-9.8,9.8-9.8h711.4c5.4,0,9.8,4.4,9.8,9.8
				v50.3C2021.1,1048.9,2016.6,1053.3,2011.2,1053.3z"/>
			<path class="st1" d="M2011.2,1184.5h-711.4c-5.4,0-9.8-4.4-9.8-9.8v-50.3c0-5.4,4.4-9.8,9.8-9.8h711.4c5.4,0,9.8,4.4,9.8,9.8
				v50.3C2021.1,1180.1,2016.6,1184.5,2011.2,1184.5z"/>
		</g>
		<g class="st6">
			<path class="st1" d="M2008.1,1480.4h-711.4c-5.4,0-9.8-4.4-9.8-9.8v-50.3c0-5.4,4.4-9.8,9.8-9.8h711.4c5.4,0,9.8,4.4,9.8,9.8
				v50.3C2017.9,1476,2013.5,1480.4,2008.1,1480.4z"/>
			<path class="st1" d="M2008.1,1611.6h-711.4c-5.4,0-9.8-4.4-9.8-9.8v-50.3c0-5.4,4.4-9.8,9.8-9.8h711.4c5.4,0,9.8,4.4,9.8,9.8
				v50.3C2017.9,1607.2,2013.5,1611.6,2008.1,1611.6z"/>
		</g>
		<path class="st7" d="M1730.2,850.8h-495.6c-5.4,0-9.8-4.4-9.8-9.8v-50.3c0-5.4,4.4-9.8,9.8-9.8h495.6c5.4,0,9.8,4.4,9.8,9.8V841
			C1740,846.4,1735.6,850.8,1730.2,850.8z"/>
		<g>
			<path class="st8" d="M1234.9,1272.2H917c-15.7,0-28.5-12.8-28.5-28.5V925.8c0-15.7,12.8-28.5,28.5-28.5h317.9
				c15.7,0,28.5,12.8,28.5,28.5v317.9C1263.4,1259.5,1250.7,1272.2,1234.9,1272.2z"/>
			<g>
				<linearGradient id="SVGID_3_" gradientUnits="userSpaceOnUse" x1="1039.4956" y1="733.6796" x2="1099.7559" y2="1413.2769">
					<stop  offset="0" style="stop-color:#FF928E"/>
					<stop  offset="1" style="stop-color:#FE7062"/>
				</linearGradient>
				<path class="st9" d="M982.5,1029.3c14.2,102.8,66.7,151,137.8,172.8l41-33c-74.7-30.2-127.2-84-149.5-169.6L982.5,1029.3z"/>
				<linearGradient id="SVGID_4_" gradientUnits="userSpaceOnUse" x1="1120.1991" y1="726.5241" x2="1180.4595" y2="1406.1212">
					<stop  offset="0" style="stop-color:#FF928E"/>
					<stop  offset="1" style="stop-color:#FE7062"/>
				</linearGradient>
				<path class="st10" d="M1117.8,1201.3c43.3,7.1,48.4,7.5,83.8-16c4-2.6,4.4-8.4,0.7-11.5l-62.5-53.3c-2.4-2.1-6.2-1.2-7.5,1.7
					L1122,1145L1117.8,1201.3z"/>
				<linearGradient id="SVGID_5_" gradientUnits="userSpaceOnUse" x1="996.9553" y1="737.4519" x2="1057.2157" y2="1417.0492">
					<stop  offset="0" style="stop-color:#FF928E"/>
					<stop  offset="1" style="stop-color:#FE7062"/>
				</linearGradient>
				<path class="st11" d="M981,1031.8c-4.3-39.5-3.5-45.5,20.9-78.4c2.8-3.8,8.6-3.9,11.5-0.1l49.9,65.3c1.9,2.6,0.9,6.3-2.1,7.4
					l-23.3,9.1l-52,1.1C983.4,1036.2,981.3,1034.3,981,1031.8z"/>
			</g>
		</g>
		<g>
			<path class="st8" d="M1230,1689.8H898.6c-15.7,0-28.5-12.8-28.5-28.5v-331.4c0-15.7,12.8-28.5,28.5-28.5H1230
				c15.7,0,28.5,12.8,28.5,28.5v331.4C1258.5,1677.1,1245.8,1689.8,1230,1689.8z"/>
			<g>
				<g>
					<g>
						<linearGradient id="SVGID_6_" gradientUnits="userSpaceOnUse" x1="1055.3662" y1="1688.274" x2="1068.7019" y2="1370.4402">
							<stop  offset="0" style="stop-color:#FF928E"/>
							<stop  offset="1" style="stop-color:#FE7062"/>
						</linearGradient>
						<circle class="st12" cx="1065.7" cy="1440.9" r="103.3"/>
						<linearGradient id="SVGID_7_" gradientUnits="userSpaceOnUse" x1="1055.2268" y1="1688.2682" x2="1068.5624" y2="1370.4349">
							<stop  offset="0" style="stop-color:#FF928E"/>
							<stop  offset="1" style="stop-color:#FE7062"/>
						</linearGradient>
						<path class="st13" d="M1168.9,1435.3h-103.1H962.4c0,0-8.2,57.3,84,214.4c4,6.9,11.4,10.9,19.3,11c7.9,0,15.3-4,19.3-10.9
							C1177.3,1492.7,1168.9,1435.3,1168.9,1435.3z"/>
					</g>
					<g>
						<linearGradient id="SVGID_8_" gradientUnits="userSpaceOnUse" x1="1027.0302" y1="1303.7269" x2="1135.4706" y2="1692.5625">
							<stop  offset="0" style="stop-color:#FF928E"/>
							<stop  offset="1" style="stop-color:#FE7062"/>
						</linearGradient>
						<path class="st14" d="M1065.7,1664v0.6h0c-9,0-17.4-4.9-21.9-12.6c-53.9-91.8-73.6-149.9-80.7-182.3c-2-7.5-3.2-14.8-3.5-22.3
							c-0.6-7.7-0.1-10.9-0.1-11.3l0.3-1.7c4.2-55.5,50.3-98.7,106-98.7c56.4,0,103,43.8,106.1,99.7c0.1,0.7,0.2,2.6,0.2,5.7l0,0.4
							c0,10.1-1.4,20.2-4.3,29.9c-7.3,32.5-27.2,89.9-80.2,180.2C1083.1,1659.4,1075,1664,1065.7,1664z M965.3,1440
							c0,1.5,0,3.8,0.3,7.1l0,0c0.3,7.1,1.4,14,3.4,21.1l0,0.1c7,32,26.5,89.4,80,180.6c3.4,5.9,9.8,9.5,16.7,9.5l0,3v-3
							c6.2,0,13.3-3.7,16.8-9.6c52.6-89.7,72.3-146.7,79.5-178.7l0.1-0.2c2.7-9.2,3.4-18.7,3.4-28.3l-0.6-0.4v0c0-3,0.5-4.6,0.5-5
							l0.3-0.2c-2.9-52.8-46.8-94.2-100-94.2c-53.1,0-97,41.9-100.1,95.2l-0.1,3.1H965.3z"/>
					</g>
					
						<ellipse transform="matrix(0.9871 -0.1602 0.1602 0.9871 -216.9841 189.3676)" class="st15" cx="1066.1" cy="1440.5" rx="59.7" ry="59.7"/>
					<g>
						<linearGradient id="SVGID_9_" gradientUnits="userSpaceOnUse" x1="1150.4636" y1="1349.4353" x2="1512.7501" y2="958.2548">
							<stop  offset="0" style="stop-color:#FEBBBA"/>
							<stop  offset="1" style="stop-color:#FF928E"/>
						</linearGradient>
						<path class="st16" d="M1066.1,1503.5c-34.7,0-63-28.3-63-63c0-34.7,28.3-63,63-63c34.7,0,63,28.3,63,63
							C1129.1,1475.3,1100.8,1503.5,1066.1,1503.5z M1066.1,1384.2c-31.1,0-56.3,25.3-56.3,56.3c0,31.1,25.3,56.3,56.3,56.3
							c31.1,0,56.3-25.3,56.3-56.3C1122.4,1409.5,1097.1,1384.2,1066.1,1384.2z"/>
					</g>
				</g>
				<g>
					<path class="st15" d="M1009.5,1378.4c-0.3,0-0.6-0.1-0.8-0.3c-0.4-0.4-0.3-1,0.1-1.4c16.8-14.4,38.2-22.3,60.3-22.3
						c0.6,0,1,0.4,1,1c0,0.6-0.4,1-1,1c-21.6,0-42.6,7.8-59,21.8C1010,1378.4,1009.7,1378.4,1009.5,1378.4z"/>
				</g>
				<g>
					<path class="st15" d="M977.6,1447.9c-0.6,0-1-0.4-1-1c0-17.3,4.8-34.1,13.8-48.7c0.3-0.5,0.9-0.6,1.4-0.3
						c0.5,0.3,0.6,0.9,0.3,1.4c-8.9,14.3-13.5,30.8-13.5,47.7C978.5,1447.5,978.1,1447.9,977.6,1447.9z"/>
				</g>
			</g>
		</g>
		<g>
			
				<linearGradient id="SVGID_10_" gradientUnits="userSpaceOnUse" x1="13899.418" y1="2797.8225" x2="13292.1787" y2="3458.3291" gradientTransform="matrix(1 9.500000e-03 -9.500000e-03 1 -13250.0029 -59.4684)">
				<stop  offset="0" style="stop-color:#09005D"/>
				<stop  offset="1" style="stop-color:#1A0F91"/>
			</linearGradient>
			<path class="st17" d="M430.4,2917.8c0,0-6.6,35.5-10,70.8c-1.3,13.8,9.2,25.8,23,26.5c46.9,2.4,147.3,7.2,183.3,5.9
				c5.4-0.2,9-5.7,7.1-10.8c-1.6-4.2-4.8-7.7-9-9.6l-165.1-77.8L430.4,2917.8z"/>
			
				<linearGradient id="SVGID_11_" gradientUnits="userSpaceOnUse" x1="13702.3174" y1="2846.873" x2="13756.2559" y2="2846.873" gradientTransform="matrix(1 9.500000e-03 -9.500000e-03 1 -13250.0029 -59.4684)">
				<stop  offset="0" style="stop-color:#FEBBBA"/>
				<stop  offset="1" style="stop-color:#FF928E"/>
			</linearGradient>
			<path class="st18" d="M425.5,2896.8l4.6,42.6c0,0,28.9,13.8,48.9-1.2l-11.6-47.6L425.5,2896.8z"/>
			<linearGradient id="SVGID_12_" gradientUnits="userSpaceOnUse" x1="141.3714" y1="3268.3267" x2="545.0833" y2="2047.6934">
				<stop  offset="0" style="stop-color:#09005D"/>
				<stop  offset="1" style="stop-color:#1A0F91"/>
			</linearGradient>
			<path class="st19" d="M436.9,2096.2c-2.3,11.1-17,554.9,38.8,799.1c0.9,4-1.1,8.1-4.9,9.6c-9,3.6-26.5,8.7-47.4,9.2
				c-6.5,0.2-12.3-4.1-14-10.4c-16.1-56.7-93-340.8-100.8-611.5c-8.7-302.5,0.1-10.3,0.1-10.3l8.6-186.9L436.9,2096.2z"/>
			
				<linearGradient id="SVGID_13_" gradientUnits="userSpaceOnUse" x1="13763.1943" y1="2672.5623" x2="13155.9297" y2="3333.0967" gradientTransform="matrix(1 9.500000e-03 -9.500000e-03 1 -13250.0029 -59.4684)">
				<stop  offset="0" style="stop-color:#09005D"/>
				<stop  offset="1" style="stop-color:#1A0F91"/>
			</linearGradient>
			<path class="st20" d="M239.5,2934.5c0,0-10.2,17.9-20.3,65.5c-1.8,8.6,4.1,16.9,12.9,17.9c15.5,1.7,39.3,3.9,58.4,3.9
				c8.8,0,15.8-7.6,14.8-16.3c-2-17.5-8.3-46.1-28.4-68.6L239.5,2934.5z"/>
			
				<linearGradient id="SVGID_14_" gradientUnits="userSpaceOnUse" x1="13507.9189" y1="2844.0991" x2="13554.4883" y2="2844.0991" gradientTransform="matrix(1 9.500000e-03 -9.500000e-03 1 -13250.0029 -59.4684)">
				<stop  offset="0" style="stop-color:#FEBBBA"/>
				<stop  offset="1" style="stop-color:#FF928E"/>
			</linearGradient>
			<path class="st21" d="M231.2,2879.7l11.2,64.5c0,0,11.6,8.8,34.7,2.7l-5-69.3L231.2,2879.7z"/>
			<linearGradient id="SVGID_15_" gradientUnits="userSpaceOnUse" x1="8.3992" y1="3224.3474" x2="412.1115" y2="2003.713">
				<stop  offset="0" style="stop-color:#09005D"/>
				<stop  offset="1" style="stop-color:#1A0F91"/>
			</linearGradient>
			<path class="st22" d="M206.7,2110.7c-50.3,286.5,3.5,709.3,22.3,792.1c1.1,5.1,5.2,9,10.3,9.9c8.7,1.5,23,2.8,37.2-1.1
				c4.9-1.4,8.3-5.7,8.6-10.8c3.3-66.8,2.5-477,48.3-638.7c2.3-8.2,7.4-15.3,14.4-20.2l86.6-60.3l7.5-98.7L206.7,2110.7z"/>
			<g>
				
					<linearGradient id="SVGID_16_" gradientUnits="userSpaceOnUse" x1="7161.73" y1="-11150.2363" x2="6651.665" y2="-10425.1436" gradientTransform="matrix(-1 0 0 1 -1547.0842 0)">
					<stop  offset="0" style="stop-color:#FF928E"/>
					<stop  offset="1" style="stop-color:#FE7062"/>
				</linearGradient>
				<path class="st23" d="M514.8,1569.9c-142.5-3.7-300.1,34.6-300.1,34.6c-44.8,247.4-12.5,533.6-12.5,533.6
					c110,30,234.9-15.4,234.9-15.4c19.3-103.4,107.6-394.1,107.6-394.1c69.7-8,127.2-27.5,174.7-53.6
					c-35.6-42.1-52.1-95.4-59.2-126.9C609.8,1563.2,558.7,1571.1,514.8,1569.9z"/>
				
					<linearGradient id="SVGID_17_" gradientUnits="userSpaceOnUse" x1="13924.3359" y1="1439.6567" x2="14199.9131" y2="1439.6567" gradientTransform="matrix(1 9.500000e-03 -9.500000e-03 1 -13250.0029 -59.4684)">
					<stop  offset="0" style="stop-color:#FEBBBA"/>
					<stop  offset="1" style="stop-color:#FF928E"/>
				</linearGradient>
				<path class="st24" d="M937.7,1364.1c-13.8-17-31.6-9.2-31.6-9.2c-21.8,88.4-132.4,159.1-245.7,193.2
					c7.1,31.5,23.6,84.8,59.2,126.9C908,1571.3,937.7,1364.1,937.7,1364.1z"/>
			</g>
			<g>
				<linearGradient id="SVGID_18_" gradientUnits="userSpaceOnUse" x1="1022.5796" y1="1000.3834" x2="911.7512" y2="1450.0306">
					<stop  offset="0" style="stop-color:#FEBBBA"/>
					<stop  offset="1" style="stop-color:#FF928E"/>
				</linearGradient>
				<path class="st25" d="M934.2,1368.3c1.4,4.7-15.6,11.6-25.4-7.5c-0.3-9.1-5.4-48.3,0.1-55.7c29.4-39.3,86.2-88.4,86.2-88.4
					c9.4,9.5,1.5,18.6,1.5,18.6l-27.6,28.2c5.6,10.4,12.5,19.2,15.6,31.7c2.4,9.5,0.8,19.6-4.1,28.1c-4.9,8.6-11.5,19.8-17.8,28.5
					C950.9,1368.4,934.2,1368.3,934.2,1368.3z"/>
				<linearGradient id="SVGID_19_" gradientUnits="userSpaceOnUse" x1="967.562" y1="1143.5072" x2="891.5651" y2="1650.1512">
					<stop  offset="0" style="stop-color:#FEBBBA"/>
					<stop  offset="1" style="stop-color:#FF928E"/>
				</linearGradient>
				<path class="st26" d="M956.9,1281.9l-25.1,20.9l-8,20.9l22,24.8c0,0,7.9-41.6,13.5-50.6C964.9,1289,962,1284.6,956.9,1281.9z"/>
			</g>
			
				<linearGradient id="SVGID_20_" gradientUnits="userSpaceOnUse" x1="7294.7158" y1="-11056.6943" x2="6784.6514" y2="-10331.6025" gradientTransform="matrix(-1 0 0 1 -1547.0842 0)">
				<stop  offset="0" style="stop-color:#FF928E"/>
				<stop  offset="1" style="stop-color:#FE7062"/>
			</linearGradient>
			<path class="st27" d="M268.1,1742.9l-53.3-138.5c0,0-134,89.2-156.9,203.6c25.1,2.1,70.8,9.1,115.4,32.1
				C183.6,1786.1,268.1,1742.9,268.1,1742.9z"/>
			
				<linearGradient id="SVGID_21_" gradientUnits="userSpaceOnUse" x1="13321.3184" y1="1829.9668" x2="13670.0518" y2="1829.9668" gradientTransform="matrix(1 9.500000e-03 -9.500000e-03 1 -13250.0029 -59.4684)">
				<stop  offset="0" style="stop-color:#FEBBBA"/>
				<stop  offset="1" style="stop-color:#FF928E"/>
			</linearGradient>
			<path class="st28" d="M383.1,1873.9c0,0-150.2,83-200,10.4c-10.3-15.1-12.7-30-10-44.1c-44.6-23-90.3-30-115.4-32.1
				c-6.9,34.5-3.8,71.3,16.2,108.6c86.8,162.4,328.6-5.8,328.6-5.8L383.1,1873.9z"/>
			
				<linearGradient id="SVGID_22_" gradientUnits="userSpaceOnUse" x1="13589.1094" y1="1457.1555" x2="13726.9932" y2="1457.1555" gradientTransform="matrix(1 9.500000e-03 -9.500000e-03 1 -13250.0029 -59.4684)">
				<stop  offset="0" style="stop-color:#FEBBBA"/>
				<stop  offset="1" style="stop-color:#FF928E"/>
			</linearGradient>
			<path class="st29" d="M371.6,1452.9L325,1583.5c-0.8,2.2,0.1,4.6,2.1,5.7c12.3,6.9,56.6,27.1,110.6-6.4
				c5.6-3.5,9.5-9.2,10.4-15.8l15.8-113.3L371.6,1452.9z"/>
			<g>
				
					<linearGradient id="SVGID_23_" gradientUnits="userSpaceOnUse" x1="4695.6016" y1="7578.7236" x2="4644.0762" y2="7408.7817" gradientTransform="matrix(0.7523 -0.6588 0.6588 0.7523 -8028.5884 -1167.3212)">
					<stop  offset="0" style="stop-color:#FEBBBA"/>
					<stop  offset="1" style="stop-color:#FF928E"/>
				</linearGradient>
				<path class="st30" d="M471.4,1332.4c0,0,48.9,94.2,42.1,132c-6.7,37.8-68.4,34.5-122,3.2L354.8,1366L471.4,1332.4z"/>
				
					<linearGradient id="SVGID_24_" gradientUnits="userSpaceOnUse" x1="4649.1191" y1="7282.6245" x2="4692.2188" y2="7528.4536" gradientTransform="matrix(0.7523 -0.6588 0.6588 0.7523 -8028.5884 -1167.3212)">
					<stop  offset="0" style="stop-color:#09005D"/>
					<stop  offset="1" style="stop-color:#1A0F91"/>
				</linearGradient>
				<path class="st31" d="M394.4,1417.9c2.2-0.9,3-3.6,1.7-5.6c-3.9-6.1-11.3-18.6-13.6-29.5c0,0-8.9-5.8,22.9-13.1
					c31.8-7.3,79.2-18.6,89.4-45.5c9.9-26.2-14.9-92.7-56-40.3c-1.6,2-4.6,2-6.1,0c-6.6-8.7-23.9-26.9-48.4-16.2
					c-22.9,10-25.6,26.6-25.3,35.1c0.1,2.5-2.2,4.4-4.6,3.9c-11.5-2.3-39.1-4.5-52.2,23.8c-10.8,23.2-4.1,36.5,2.2,43
					c2,2.1,1.1,5.6-1.7,6.4c-7.6,2.2-17.4,8.6-16.6,26.3c1.1,24.5,28.5,22.6,36.3,21.6c1.3-0.2,2.6,0.3,3.4,1.2
					c6.6,7.5,36.4,39.2,69,43.3c2.8,0.4,5-2.4,4.1-5.1l-13.7-41.1c-0.6-1.9,0.3-4,2.1-4.8L394.4,1417.9z"/>
				
					<linearGradient id="SVGID_25_" gradientUnits="userSpaceOnUse" x1="4642.9312" y1="7577.9307" x2="4596.5732" y2="7425.0308" gradientTransform="matrix(0.7523 -0.6588 0.6588 0.7523 -8028.5884 -1167.3212)">
					<stop  offset="0" style="stop-color:#FEBBBA"/>
					<stop  offset="1" style="stop-color:#FF928E"/>
				</linearGradient>
				<path class="st32" d="M400,1423.8c0,0-35.2-24.7-38-4.2c-2.8,20.5,31.6,30,48.8,22.5L400,1423.8z"/>
			</g>
			<g>
				<g>
					
						<linearGradient id="SVGID_26_" gradientUnits="userSpaceOnUse" x1="13475.1543" y1="1675.4644" x2="13667.585" y2="2477.2617" gradientTransform="matrix(1 0 0 1 -12978.9785 0)">
						<stop  offset="0" style="stop-color:#09005D"/>
						<stop  offset="1" style="stop-color:#1A0F91"/>
					</linearGradient>
					<path class="st33" d="M352.4,2005.1l81.8-285.8c0.9-3.2,3.7-5.6,7-6c14.8-1.7,57.8-6.6,107.4-10.8
						c59.8-5.1,129.1-9.1,170.6-5.7c5.9,0.5,9.5,6.7,6.8,12c-23.6,47.7-120.6,241.8-169.1,305.3c-1.6,2.1-4.1,3.3-6.7,3.3
						l-189.9-1.8C354.9,2015.7,350.9,2010.4,352.4,2005.1z"/>
					
						<linearGradient id="SVGID_27_" gradientUnits="userSpaceOnUse" x1="13343.2949" y1="1887.5824" x2="13452.3213" y2="1887.5824" gradientTransform="matrix(1 0 0 1 -12978.9785 0)">
						<stop  offset="0" style="stop-color:#FEBBBA"/>
						<stop  offset="1" style="stop-color:#FF928E"/>
					</linearGradient>
					<path class="st34" d="M372.2,1936c0,0-11.4-46.9-6.8-63.5c4.6-16.6,13.5-38,43.2-33.3c29.7,4.8,64.7,17.3,64.7,17.3
						s-1.8,21.7-24.3,14.7l14,10.8c0,0-2,17.3-21.1,8.1l13,14.4c0,0-8.2,14.2-22.2,5.1C418.7,1900.4,412,1941.7,372.2,1936z"/>
				</g>
			</g>
		</g>
		<path class="st0" d="M1919.6,2603.7l-1027.8-32.1c-42.6-1.3-76.4-35.8-76.4-78v-546.7c0-49.4,40.5-89.4,90.4-89.4h1097.7
			c39.1,0,70.3,32.1,68.9,70.7l-20.9,553.8C2048.9,2551.5,1990,2605.9,1919.6,2603.7z"/>
		<g>
			<g>
				<linearGradient id="SVGID_28_" gradientUnits="userSpaceOnUse" x1="1273.3092" y1="2722.6108" x2="1463.3331" y2="2182.5422">
					<stop  offset="0" style="stop-color:#FF928E"/>
					<stop  offset="1" style="stop-color:#FE7062"/>
				</linearGradient>
				<path class="st35" d="M1800,2496.8h-711.7c-28.7,0-52-21.3-52-47.6v-424c0-25.3,21.6-46.1,49.1-47.5l739.2-37.7
					c30.9-1.6,56.5,21.8,54.8,50.1l-27.5,461.7C1850.4,2477,1827.6,2496.8,1800,2496.8z"/>
				<g>
					<linearGradient id="SVGID_29_" gradientUnits="userSpaceOnUse" x1="1413.5884" y1="2224.8916" x2="1543.6053" y2="1334.7781">
						<stop  offset="0" style="stop-color:#FF928E"/>
						<stop  offset="1" style="stop-color:#FE7062"/>
					</linearGradient>
					<path class="st36" d="M1460.7,2240.9l389.1-296.4c-7.6-3.3-16.2-5-25.2-4.5l-739.2,37.7c-12.7,0.6-24.1,5.4-32.8,12.9
						l291.2,247.7C1375.4,2265.2,1427.4,2266.3,1460.7,2240.9z"/>
				</g>
			</g>
			<path class="st1" d="M1406.6,2226.2c-19.3,0-38.6-6.3-54.1-18.8l-109.7-88.6c-3.2-2.6-3.5-7.1-0.7-10c2.8-3,7.8-3.2,11-0.6
				l109.7,88.6c23.3,18.8,57.2,20.4,82.5,3.8l56.8-37.4c3.5-2.3,8.3-1.6,10.9,1.6c2.5,3.2,1.7,7.6-1.8,9.9l-56.8,37.4
				C1440,2221.5,1423.3,2226.2,1406.6,2226.2z"/>
			<path class="st1" d="M1207.2,2087.6c-1.8,0-3.7-0.6-5.1-1.8l-14.8-11.9c-3.2-2.6-3.5-7.1-0.7-10c2.8-3,7.8-3.2,11-0.6l14.8,11.9
				c3.2,2.6,3.5,7.1,0.7,10C1211.5,2086.8,1209.3,2087.6,1207.2,2087.6z"/>
		</g>
	</g>
	<g>
		<path class="st37" d="M-1747.2,2872.1c0,0-140.7,281.4-283.6,475.7c-56.9,77.3-114.1,140.8-162.9,167.3
			c-47.8,25.9-88.3,66.2-121.7,110.8c-86.7,115.5-126.7,260.2-126.7,260.2l-365.4-552.8c0,0,12.5-540.4,56.3-630.8
			c63.9-131.7,94.8-397.9,119.4-450.9c18.2-39.3,70.3-242.4,75.3-257.3c2.2-6.4,19.5-16.3,42-16.3c18,0,48.7,17.4,56.4,53.3
			c39.1,181.2-8,300.7-7.4,306c13.8,139.2-27.7,242.6,1.4,270c1.1,1,3.1,0.5,5.9-1.3c50.4-32.3,363-488.2,401.6-498
			C-2016.1,2097.6-1747.2,2872.1-1747.2,2872.1z"/>
		<path class="st38" d="M-2332.3,3776.7c0,0-5,245.7-19.2,576.6h-921.8c210.7-449.3,393.9-827.5,393.9-827.5
			S-2354.5,3541.8-2332.3,3776.7z"/>
		<path class="st37" d="M-1427.7,1919.6l-113.2,165.9l-111,162.8c-6.8,8.2-14.6,11-23.1,10.2c-26.6-2.5-59.6-41-85.3-62.2l-2.6-2.1
			c-33.9-28-38.7-78.7-10.6-112.5l169.7-205.2v0l50.3-60.8c28-33.9,78.7-38.7,112.5-10.6l2.6,2.1
			C-1404.5,1835.1-1399.7,1885.7-1427.7,1919.6z"/>
		<path class="st39" d="M-1540.9,2085.5l-111,162.8c-6.8,8.2-14.6,11-23.1,10.2l71.2-382.1
			C-1603.7,1878.6-1591.6,2050-1540.9,2085.5z"/>
		<path class="st39" d="M-2030.8,3347.8c-56.9,77.3-114.1,140.8-162.9,167.3c-47.8,25.9-88.3,66.2-121.7,110.8
			c-38.5-18-82.4-39-125.3-59.9c-52.3-25.4-54.3-99.6-3.1-127.1c0.5-0.3,1-0.5,1.5-0.8c48-27.4,97.1-124.3,97.1-124.3
			L-2030.8,3347.8z"/>
		<path class="st40" d="M-2559.1,2002.7l-29.6,119.5c0,0,25.9,10.6,42.5,2.4C-2529.6,2116.4-2516.1,2009.1-2559.1,2002.7z"/>
		<g>
			<path class="st41" d="M-1671.3,3404.3h-709.4c-42.6,0-77.5-34.9-77.5-77.5V1854.6c0-42.6,34.9-77.5,77.5-77.5h709.4
				c42.6,0,77.5,34.9,77.5,77.5v1472.2C-1593.8,3369.4-1628.7,3404.3-1671.3,3404.3z"/>
			<g>
				<path class="st42" d="M-1636.6,1901.8v1367c0,46.4-37.7,84.3-83.7,84.3h-611.3c-46,0-83.7-37.9-83.7-84.3v-1367
					c0-46.4,37.7-84.3,83.7-84.3h611.3C-1674.3,1817.5-1636.6,1855.4-1636.6,1901.8z"/>
				<path class="st43" d="M-1720.3,1817.5l-603.8,1535.6h-7.6c-46,0-83.7-37.9-83.7-84.3v-1367c0-46.4,37.7-84.3,83.7-84.3H-1720.3z
					"/>
			</g>
			<path class="st41" d="M-1886.2,1868.3h-279.7c-14.2,0-25.8-11.6-25.8-25.8v-30.1c0-14.2,11.6-25.8,25.8-25.8h279.7
				c14.2,0,25.8,11.6,25.8,25.8v30.1C-1860.4,1856.7-1872,1868.3-1886.2,1868.3z"/>
		</g>
		<g>
			<path class="st37" d="M-1484,2546.1l-16.9,6.4l-113.5,43.1c-2.7,1-5.4,1.9-8,2.5c-37.6,9.8-77.6-10.3-91.6-47.3l-1.7-4.4
				c-15.1-39.7,5.1-84.6,44.8-99.7l105.8-40.2l7.7-2.9l16.9-6.4c39.7-15.1,84.6,5.1,99.7,44.8l1.7,4.4
				C-1424.2,2486.1-1444.3,2531-1484,2546.1z"/>
			<path class="st44" d="M-1576.2,2548.7c-18.9,7.2-53.2,19.9-71.6,22.5c-5.2,0.7-14.7-2.1-23.7-11.8c-5.4-5.8-10.5-14.2-14.3-25.7
				c-1.8-5.4-3.3-10.8-3.9-16.4c-0.7-6.5-0.5-13.1,0.6-19.5c1-5.8,5-11.1,10.8-13.9c0,0,0.1,0,0.1,0c19.5-9.3,45.8-20.7,68.8-27
				c15.9-4.4,32,2.6,37.1,16.6l2.4,6.5l12.2,33.4C-1552.5,2527-1560.7,2542.9-1576.2,2548.7z"/>
			<path class="st40" d="M-1576.2,2548.7c-18.9,7.2-53.2,19.9-71.6,22.5c-5.2,0.7-14.7-2.1-23.7-11.8c-1-2.2-1.8-4.6-2.7-7.1
				c-1.8-5.4-3.3-10.8-3.9-16.4c-0.7-6.5-0.5-13.1,0.6-19.5c1-5.8,5-11.1,10.8-13.9c0,0,0.1,0,0.1,0c19.5-9.3,45.8-20.7,68.8-27
				c10.2-2.8,20.5-1,27.9,4.4l12.2,33.4C-1552.5,2527-1560.7,2542.9-1576.2,2548.7z"/>
		</g>
		<g>
			<path class="st37" d="M-1535.5,2705.6l-87.5,23.8c-26.6,7.2-54.3-8.6-61.5-35.2l-2.7-9.9c-7.2-26.6,8.6-54.3,35.2-61.5l87.5-23.8
				c26.6-7.2,54.3,8.6,61.5,35.2l2.7,9.9C-1493.1,2670.7-1508.9,2698.4-1535.5,2705.6z"/>
			<path class="st44" d="M-1582.9,2701.3c-16.1,4.3-45.1,11.9-60.4,12.7c-5.5,0.3-16.6-4.4-23.9-18.9c-1.8-3.5-3.3-7.6-4.5-12.3
				c-1.1-4.3-1.9-8.5-1.9-12.9c-0.1-5.1,0.5-10.1,1.9-15c1.3-4.4,4.9-8.2,9.9-10c0,0,0.1,0,0.1,0c16.7-5.9,39.1-12.9,58.5-16.3
				c13.4-2.3,26.1,4.1,29.2,15.1l2.3,7.9l6.7,23.7C-1561.8,2686.2-1569.7,2697.9-1582.9,2701.3z"/>
			<path class="st40" d="M-1582.9,2701.3c-16.1,4.3-45.1,11.9-60.4,12.7c-5.5,0.3-16.6-4.4-23.9-18.9c-1-4-1.7-8-1.8-12.1
				c-0.1-5.1,0.5-10.1,1.9-15c1.3-4.4,4.9-8.2,9.9-10c0,0,0.1,0,0.1,0c16.7-5.9,39.1-12.9,58.5-16.3c11.1-1.9,21.7,2.1,26.8,9.9
				l6.7,23.7C-1561.8,2686.2-1569.7,2697.9-1582.9,2701.3z"/>
		</g>
		<path class="st45" d="M-2969.1,3712.2c0,0,180.1,172.5,301.5,239.1l91.9-65.2v96.2c0,0,180.8,32,237.8,0V3720l-507.8-254.6
			L-2969.1,3712.2z"/>
		<path class="st46" d="M-2299.4,3961.4c-70,14.3-220.7-40.6-220.7-40.6l24.3-234.9l-170.4,195.1
			c-86.7-32.3-222.3-116.5-302.9-168.9c-40.1-26.1-66.6-44.3-66.6-44.3c113.7-183,228.1-354.1,228.1-354.1
			c33.6,67.2,113,125.5,199.1,172.1c143.1,77.5,304.7,122.8,304.7,122.8C-2303.8,3748.3-2299.4,3961.4-2299.4,3961.4z"/>
		<g>
			<path class="st37" d="M-1486.8,2378.4c-0.6,0.2-1.2,0.4-1.9,0.6l-114.7,29.5c-50.4,13-102.6-14.3-115.9-60.7l-6.8-23.7
				c-12.8-44.5,14.7-91,61.6-106.1l37.9-9.7l76.9-19.7c50.4-13,102.6,14.3,115.9,60.7l6.8,23.7
				C-1414.5,2316.8-1441.1,2362.7-1486.8,2378.4z"/>
			<path class="st44" d="M-1539.4,2346.4l-55.7,25.1c-0.1,0-0.2,0-0.4,0.1c-2.2,0.6-4.5,1.1-6.7,1.4c-0.9,0.1-1.9,0.2-2.8,0.4
				c-0.4,0-0.8,0-1.2,0c-6.1-0.2-10.4-6.7-7.7-12.5c5.3-11.5,6.7-24.7,3.2-37.8l-1.3-4.9c0,0,0-0.1,0-0.1l-4.3-15.8
				c-3.4-12.6-10.7-23.2-20.2-30.8c-1.1-0.9-2.3-1.8-3.5-2.6c-11-7.6-8.2-24.9,4.7-28.5c0.1,0,0.2-0.1,0.4-0.1l61.2-9.3
				c15.1-4.1,29.7,7.5,33.8,22.7l4.9,18l10.5,38.4C-1520.7,2325.1-1524.3,2342.2-1539.4,2346.4z"/>
			<path class="st40" d="M-1539.4,2346.4l-55.7,25.1c-0.1,0-0.2,0-0.4,0.1c-1.3,0.2-5.4,0.9-10.7,1.8c-6.1-0.2-10.4-6.7-7.7-12.5
				c5.3-11.5,6.7-24.7,3.2-37.8l-1.3-4.9c0,0,0-0.1,0-0.1l-4.3-15.8c-3.4-12.6-10.7-23.2-20.2-30.8c2-2.9,4.9-5.2,8.8-6.2
				c0.1,0,0.2-0.1,0.4-0.1l61.2-9.3c12.7-3.5,25.1,4.3,31.1,15.8l10.5,38.4C-1520.7,2325.1-1524.3,2342.2-1539.4,2346.4z"/>
		</g>
		<path class="st39" d="M-2458.2,2975.1c0,0-25-218.5-48.1-261.1c-23.1-42.6-42.6-127.9-7.1-191.3c35.5-63.4,47.8-185.4,47.8-185.4
			c13.8,139.2-27.7,242.6,1.4,270c1.1,1,3.1,0.5,5.9-1.3L-2458.2,2975.1z"/>
		<path class="st47" d="M-2785.8,2619.3h904.1c20.5,0,37.2-16.6,37.2-37.2v-383c0-20.5-16.6-37.2-37.2-37.2h-904.1
			c-20.5,0-37.2,16.6-37.2,37.2v383C-2823,2602.6-2806.4,2619.3-2785.8,2619.3z"/>
		<g>
			<path class="st48" d="M-1878.5,2104h-369.4c-17.2,0-31.1-13.9-31.1-31.1v-93.7c0-17.2,13.9-31.1,31.1-31.1h369.4
				c17.2,0,31.1,13.9,31.1,31.1v93.7C-1847.4,2090-1861.3,2104-1878.5,2104z"/>
		</g>
		<g>
			<path class="st48" d="M-1890.5,3247.2h-427.2c-20.6,0-37.2-16.7-37.2-37.2v-117.9c0-20.6,16.7-37.2,37.2-37.2h427.2
				c20.6,0,37.2,16.7,37.2,37.2V3210C-1853.3,3230.6-1870,3247.2-1890.5,3247.2z"/>
		</g>
		<g>
			<path class="st38" d="M-1734.6,2975.1h-412.4c-24.6,0-44.6-20-44.6-44.6v-186.9c0-24.6,20-44.6,44.6-44.6h412.4
				c24.6,0,44.6,20,44.6,44.6v186.9C-1690,2955.2-1710,2975.1-1734.6,2975.1z"/>
		</g>
		<path class="st37" d="M-707.9,4353.4h-676c-32.4-21.7-200.8-136.6-270.4-222.2c-14.8-18.1-68.8-174.5-110.2-301.4
			c-25.9-79.3-46.9-147.1-50.5-162.7c-1.2-5.4-2.1-16.2-2.6-30.7v-0.1c-1.8-51.9,0.6-152,3.1-231.5l0-0.4l0-1
			c0.1-3.5,0.2-6.9,0.3-10.3v-0.1c0-0.3,0-0.7,0-1c0.5-13.8,0.9-26.8,1.3-38.7c1-29.6,1.9-51.9,2.3-60.6l0.1-4.1c0,0,0,0,0,0
			c1.1-0.6,33.6-18,77.1,13.4c10.5,7.6,20.2,25.8,29,49.7c5.7,15.2,11,32.7,15.9,51.1c19,70.9,32.6,155.6,39.9,178.3
			c11.7,36.7,149.9,197.9,158.6,207.9c0.1,0.2,0.3,0.3,0.4,0.5v-254.6l-104.3-279.2l-42.8-114.6l-21.5-57.6c0,0-33-54.2-60.7-119.4
			c-12.1-28.5-23.2-59.2-30.1-88.3c-1.6-6.9-3-13.8-4.2-20.5c0,0,0,0,0,0c-4.1-24.6-4.4-47.4,1.3-66c10.1-33.1,32.8-39.3,50.3-38.7
			c1.8,0.1,3.6,0.2,5.2,0.4c1.7,0.2,3.4,0.5,5,1c3.1,0.8,6,2,8.7,3.6c0,0,0,0,0,0c4.5,2.6,8.3,6.2,11.3,10.6
			c0,0,14.8,19.3,34.5,45.2c13,17,28.2,37,42.8,56.1c26,34.2,50.2,66.1,56.8,75.4c35.9,50.5,132.6,215.2,132.6,215.2l113.1,4.7
			c17.9,0.7,35,7.9,48.1,20.1c40.2,37.6,127,118.9,137.6,131c0,4,67.4,36.4,119.5,65.2c37.2,15.7,108,71.5,108,71.5
			c14.7,12.9,25.8,25.8,31.5,38.1c24.3,52.8,90.1,512,121.5,738.9C-715,4300.6-708.4,4349.6-707.9,4353.4z"/>
		<path class="st39" d="M-1404.4,3158c0,0,104.8,171.1,118.7,178.8c13.9,7.7,67.8,18.5,74,0C-1205.6,3318.3-1404.4,3158-1404.4,3158
			z"/>
		<path class="st39" d="M-877.6,3451c-0.2-0.2-0.4-0.3-0.5-0.5c0,0-70.8-55.8-108-71.5c-47.8-26.5-108.5-56-118.2-63.7
			c11.1,12.7,89.2,101,119.2,107.6C-958.7,3428.8-898.8,3445.2-877.6,3451z"/>
		<path class="st39" d="M-1489.5,3789.3v-254.6c0,0,60.5,101.2,65.1,156.7C-1419.7,3746.9-1449.5,3836.7-1489.5,3789.3z"/>
		<path class="st44" d="M-1708.9,2855c-8.8-15.2-24.7-42.7-30.1-58c-1.5-4.3-1.3-13,4-22.3c3.2-5.6,8.2-11.3,15.9-16.5
			c3.6-2.4,7.2-4.6,11.1-6c4.6-1.7,9.4-2.6,14.3-2.6c4.4,0,9,2.5,12.2,7.1c0,0,0,0.1,0,0.1c10.5,15.3,23.8,36.1,32.8,55
			c6.3,13,4.3,28.1-4.8,34.7l-4.3,3.1l-21.8,15.9C-1688.7,2871.9-1701.7,2867.4-1708.9,2855z"/>
		<path class="st40" d="M-1708.9,2855c-8.8-15.2-24.7-42.7-30.1-58c-1.5-4.3-1.3-13,4-22.3c1.4-1.2,2.9-2.3,4.6-3.4
			c3.6-2.4,7.2-4.6,11.1-6c4.6-1.7,9.4-2.6,14.3-2.6c4.4-0.1,9,2.5,12.2,7.1c0,0,0,0.1,0,0.1c10.5,15.3,23.8,36.1,32.8,55
			c4,8.3,4.6,17.5,2.2,24.7l-21.8,15.9C-1688.7,2871.9-1701.7,2867.4-1708.9,2855z"/>
		<g>
			<path class="st49" d="M-1096.9,2202.5h-185c-25.4,0-46.1-20.8-46.1-46.1v-160c0-25.4,20.8-46.1,46.1-46.1h185
				c25.4,0,46.1,20.8,46.1,46.1v160C-1050.8,2181.7-1071.6,2202.5-1096.9,2202.5z"/>
			<g>
				<path class="st38" d="M-1263.1,2074.3c7.7,20.3,73.7,73.6,73.7,73.6s21.5-17.5,41.4-36.3c14.9-13.9,28.9-28.6,32.2-37.3
					c7.8-20.2-0.5-49-29.3-53.9c-28.7-4.9-44.3,25.2-44.3,25.2s-15.5-30.1-44.4-25.2c-5,0.9-9.4,2.4-13.2,4.6
					C-1265,2035-1269.5,2057.6-1263.1,2074.3z"/>
			</g>
		</g>
		<g>
			<path class="st49" d="M-3397.4,2859.5h424.5c33.8,0,61.5,27.7,61.5,61.5v186.2c0,31.1-25.4,56.5-56.5,56.5h-10.9l20.5,86.4
				l-128.4-86.4h-314.3c-33.8,0-61.5-27.7-61.5-61.5v-177.7C-3462.5,2888.8-3433.2,2859.5-3397.4,2859.5z"/>
			<path class="st43" d="M-3408.8,2994.7h442.6c6,0,11-4.9,11-11l0,0c0-6-4.9-11-11-11h-442.6c-6,0-11,4.9-11,11l0,0
				C-3419.7,2989.8-3414.8,2994.7-3408.8,2994.7z"/>
			<path class="st43" d="M-3408.8,3043.8h442.6c6,0,11-4.9,11-11l0,0c0-6-4.9-11-11-11h-442.6c-6,0-11,4.9-11,11l0,0
				C-3419.7,3038.8-3414.8,3043.8-3408.8,3043.8z"/>
			<path class="st43" d="M-3408.8,3092.8h442.6c6,0,11-4.9,11-11l0,0c0-6-4.9-11-11-11h-442.6c-6,0-11,4.9-11,11l0,0
				C-3419.7,3087.9-3414.8,3092.8-3408.8,3092.8z"/>
			<path class="st43" d="M-3167.6,2918.5h187.9c7.2,0,13-5.9,13-13l0,0c0-7.2-5.9-13-13-13h-187.9c-7.2,0-13,5.9-13,13l0,0
				C-3180.7,2912.6-3174.8,2918.5-3167.6,2918.5z"/>
			<path class="st43" d="M-3332.4,2918.5h119.7c3.9,0,7-3.2,7-7v-12.1c0-3.9-3.2-7-7-7h-119.7c-3.9,0-7,3.2-7,7v12.1
				C-3339.4,2915.3-3336.3,2918.5-3332.4,2918.5z"/>
		</g>
		<g>
			<polygon class="st50" points="-1264.3,2954 -997.3,3041.3 -1157.3,2885.4 -1173.5,2923.5 -1242.2,2923.8 			"/>
			<polygon class="st1" points="-997.3,3041.3 -1204.5,2883.6 -1426,2833.1 			"/>
			<polygon class="st1" points="-1157.3,2885.4 -997.3,3041.3 -1103.9,2822.9 			"/>
		</g>
		<g>
			<polygon class="st50" points="-2838.8,1959.3 -3088.4,1994.9 -2922.8,1882 -2914.3,1918.2 -2853.7,1929.2 			"/>
			<polygon class="st1" points="-3088.4,1994.9 -2880.7,1887.8 -2677.1,1877.5 			"/>
			<polygon class="st1" points="-2922.8,1882 -3088.4,1994.9 -2960.2,1818.4 			"/>
		</g>
		<path class="st1" d="M-2447,2373.3c0,32.6-11,62.5-29.4,86.5c-6.1,7.9-13.1,15.2-20.7,21.7c-24.7,21-56.7,33.6-91.6,33.6
			c-31.8,0-61.1-10.4-84.7-28.1c-10.4-7.8-19.7-16.9-27.7-27.2c-18.5-23.9-29.4-53.9-29.4-86.5c0-78.3,63.5-141.8,141.8-141.8
			C-2510.4,2231.5-2447,2295-2447,2373.3z"/>
		<path class="st41" d="M-2531.8,2440.3c-0.4-0.4-0.7-0.8-1.1-1.2c-1.6-1.2-3.3-2-9.8-3.2c-3.3-0.6-8-1.2-14.5-2.1
			c0,0-1.4-0.2-2.2-0.2c-0.5,0-1-0.1-1.6-0.1c-1.9-1-2.4-8.8-2.4-17c0-0.6,0-1.2,0-1.9c0-3.1,0.1-6.2,0.2-8.9c0-0.2,0-0.3,0-0.5
			c4.1,0.3,6.7,0.3,6.7,0.3c7.6-0.6,12.3-20.9,14-37.2c0,0,3.7-9,3.7-18.7c0-5.5-1.2-11.2-4.8-15.6c-1.9-2.3-3.7-3.8-5.3-4.8
			c-0.5-0.5-1-0.9-1.4-1.3c-7-7.8-35.6-37-54.3-20.1c-0.5-1.7-6.6-20.7-36.1-14.5c1.8-0.2,14.9-1.4,18.7,3.9
			c-0.5-0.2-12-5.3-19.2-0.9c-3.3,2-5.4,6.2-6.6,10.7c0,0,0,0.1,0,0.1c0,0,0,0,0,0.1v0c0,0,0,0.1,0,0.1c-0.1,0.6-0.3,1.2-0.4,1.8
			c0,0.1,0,0.2-0.1,0.3c0,0,0,0,0,0.1c0,0,0,0,0,0c-0.9,4.6-0.9,9-0.4,11.2c1.1,4.6,9.3,18.4,14.7,18.4c2.1,0,4.2-0.7,6.2-1.5
			c-0.8,2.4-1.6,5.1-2.2,8c-5.7,27,12.2,47.5,21.5,42.5c6-3.2,10.5,7.2,10.5,7.2l0,0c-0.9,19.8-6.3,32.7-10.3,35.9
			c-1.4,0.2-4.6,0.5-8.4,1.2v0c0,0-13.7,1.5-24.1,6c-0.1,0-0.2,0.1-0.2,0.1c-2.4,1-4.4,2.1-5.9,3.3c0,0,0,0,0,0v0
			c-0.8,0.6-1.4,1.3-1.9,2c-0.2,0.3-0.5,0.6-0.6,0.9c-3.5,6.6-7,16.6-10.4,28.3c20,15,44.9,23.8,71.8,23.8
			c29.6,0,56.8-10.7,77.7-28.5C-2518.2,2452.2-2527,2444-2531.8,2440.3z"/>
		<path class="st1" d="M-2185.6,2301.9h-167.5c-3.8,0-6.9-3.1-6.9-6.9v-11.3c0-3.8,3.1-6.9,6.9-6.9h167.5c3.8,0,6.9,3.1,6.9,6.9
			v11.3C-2178.7,2298.8-2181.8,2301.9-2185.6,2301.9z"/>
		<g>
			<path class="st1" d="M-2186.9,2392.3h-165c-4.5,0-8.2-3.7-8.2-8.2l0,0c0-4.5,3.7-8.2,8.2-8.2h165c4.5,0,8.2,3.7,8.2,8.2l0,0
				C-2178.7,2388.6-2182.4,2392.3-2186.9,2392.3z"/>
			<path class="st1" d="M-2257.9,2431.1h-97.9c-2.4,0-4.3-1.9-4.3-4.3v-7.8c0-2.4,1.9-4.3,4.3-4.3h97.9c2.4,0,4.3,1.9,4.3,4.3v7.8
				C-2253.6,2429.2-2255.6,2431.1-2257.9,2431.1z"/>
			<path class="st1" d="M-2066.1,2431.1h-156.7c-2.9,0-5.4-2.4-5.4-5.4v-5.7c0-2.9,2.4-5.4,5.4-5.4h156.7c2.9,0,5.4,2.4,5.4,5.4v5.7
				C-2060.8,2428.7-2063.2,2431.1-2066.1,2431.1z"/>
			<path class="st1" d="M-1926.9,2392.3h-216.3c-4.5,0-8.2-3.7-8.2-8.2l0,0c0-4.5,3.7-8.2,8.2-8.2h216.3c4.5,0,8.2,3.7,8.2,8.2l0,0
				C-1918.7,2388.6-1922.4,2392.3-1926.9,2392.3z"/>
			<path class="st1" d="M-2186.9,2469.9h-165c-4.5,0-8.2-3.7-8.2-8.2l0,0c0-4.5,3.7-8.2,8.2-8.2h165c4.5,0,8.2,3.7,8.2,8.2l0,0
				C-2178.7,2466.2-2182.4,2469.9-2186.9,2469.9z"/>
			<path class="st1" d="M-1926.9,2469.9h-216.3c-4.5,0-8.2-3.7-8.2-8.2l0,0c0-4.5,3.7-8.2,8.2-8.2h216.3c4.5,0,8.2,3.7,8.2,8.2l0,0
				C-1918.7,2466.2-1922.4,2469.9-1926.9,2469.9z"/>
		</g>
		<path class="st1" d="M-2029.1,2301.9h-121.2c-3.3,0-5.9-2.7-5.9-5.9v-13.3c0-3.3,2.7-5.9,5.9-5.9h121.2c3.3,0,5.9,2.7,5.9,5.9
			v13.3C-2023.2,2299.2-2025.8,2301.9-2029.1,2301.9z"/>
		<g>
			<path class="st47" d="M-2175.4,3109.5h-119.1c-2.7,0-4.9-2.2-4.9-4.9v-8.1c0-2.7,2.2-4.9,4.9-4.9h119.1c2.7,0,4.9,2.2,4.9,4.9
				v8.1C-2170.5,3107.3-2172.7,3109.5-2175.4,3109.5z"/>
			<g>
				<path class="st47" d="M-2176.3,3155.3h-117.3c-3.2,0-5.8-2.6-5.8-5.8l0,0c0-3.2,2.6-5.8,5.8-5.8h117.3c3.2,0,5.8,2.6,5.8,5.8
					l0,0C-2170.5,3152.7-2173.1,3155.3-2176.3,3155.3z"/>
				<path class="st47" d="M-2226.8,3182.9h-69.6c-1.7,0-3-1.4-3-3v-5.6c0-1.7,1.4-3,3-3h69.6c1.7,0,3,1.4,3,3v5.6
					C-2223.8,3181.5-2225.1,3182.9-2226.8,3182.9z"/>
				<path class="st47" d="M-2090.4,3182.9h-111.4c-2.1,0-3.8-1.7-3.8-3.8v-4c0-2.1,1.7-3.8,3.8-3.8h111.4c2.1,0,3.8,1.7,3.8,3.8v4
					C-2086.6,3181.2-2088.3,3182.9-2090.4,3182.9z"/>
				<path class="st47" d="M-1991.5,3155.3h-153.8c-3.2,0-5.8-2.6-5.8-5.8l0,0c0-3.2,2.6-5.8,5.8-5.8h153.8c3.2,0,5.8,2.6,5.8,5.8
					l0,0C-1985.7,3152.7-1988.3,3155.3-1991.5,3155.3z"/>
				<path class="st47" d="M-2176.3,3210.5h-117.3c-3.2,0-5.8-2.6-5.8-5.8l0,0c0-3.2,2.6-5.8,5.8-5.8h117.3c3.2,0,5.8,2.6,5.8,5.8
					l0,0C-2170.5,3207.8-2173.1,3210.5-2176.3,3210.5z"/>
				<path class="st47" d="M-1991.5,3210.5h-153.8c-3.2,0-5.8-2.6-5.8-5.8l0,0c0-3.2,2.6-5.8,5.8-5.8h153.8c3.2,0,5.8,2.6,5.8,5.8
					l0,0C-1985.7,3207.8-1988.3,3210.5-1991.5,3210.5z"/>
			</g>
			<path class="st47" d="M-2064.1,3109.5h-86.2c-2.3,0-4.2-1.9-4.2-4.2v-9.5c0-2.3,1.9-4.2,4.2-4.2h86.2c2.3,0,4.2,1.9,4.2,4.2v9.5
				C-2059.9,3107.6-2061.8,3109.5-2064.1,3109.5z"/>
		</g>
		<g>
			<path class="st47" d="M-2099.4,1996h-119.1c-2.7,0-4.9-2.2-4.9-4.9v-8.1c0-2.7,2.2-4.9,4.9-4.9h119.1c2.7,0,4.9,2.2,4.9,4.9v8.1
				C-2094.5,1993.8-2096.7,1996-2099.4,1996z"/>
			<g>
				<path class="st47" d="M-2100.3,2041.8h-117.3c-3.2,0-5.8-2.6-5.8-5.8l0,0c0-3.2,2.6-5.8,5.8-5.8h117.3c3.2,0,5.8,2.6,5.8,5.8
					l0,0C-2094.5,2039.1-2097.1,2041.8-2100.3,2041.8z"/>
				<path class="st47" d="M-2150.8,2069.3h-69.6c-1.7,0-3-1.4-3-3v-5.6c0-1.7,1.4-3,3-3h69.6c1.7,0,3,1.4,3,3v5.6
					C-2147.8,2068-2149.2,2069.3-2150.8,2069.3z"/>
				<path class="st47" d="M-2014.5,2069.3h-111.4c-2.1,0-3.8-1.7-3.8-3.8v-4c0-2.1,1.7-3.8,3.8-3.8h111.4c2.1,0,3.8,1.7,3.8,3.8v4
					C-2010.7,2067.6-2012.4,2069.3-2014.5,2069.3z"/>
				<path class="st47" d="M-1915.5,2041.8h-153.8c-3.2,0-5.8-2.6-5.8-5.8l0,0c0-3.2,2.6-5.8,5.8-5.8h153.8c3.2,0,5.8,2.6,5.8,5.8
					l0,0C-1909.7,2039.1-1912.3,2041.8-1915.5,2041.8z"/>
			</g>
			<path class="st47" d="M-1988.1,1996h-86.2c-2.3,0-4.2-1.9-4.2-4.2v-9.5c0-2.3,1.9-4.2,4.2-4.2h86.2c2.3,0,4.2,1.9,4.2,4.2v9.5
				C-1983.9,1994.1-1985.8,1996-1988.1,1996z"/>
		</g>
		<g>
			<path class="st45" d="M-1998,2769.2h-130.4c-3,0-5.4-2.4-5.4-5.4v-8.8c0-3,2.4-5.4,5.4-5.4h130.4c3,0,5.4,2.4,5.4,5.4v8.8
				C-1992.6,2766.8-1995,2769.2-1998,2769.2z"/>
			<g>
				<path class="st45" d="M-1999,2819.3h-128.4c-3.5,0-6.4-2.9-6.4-6.4l0,0c0-3.5,2.9-6.4,6.4-6.4h128.4c3.5,0,6.4,2.9,6.4,6.4l0,0
					C-1992.6,2816.4-1995.5,2819.3-1999,2819.3z"/>
				<path class="st45" d="M-2054.3,2849.5h-76.2c-1.8,0-3.3-1.5-3.3-3.3v-6.1c0-1.8,1.5-3.3,3.3-3.3h76.2c1.8,0,3.3,1.5,3.3,3.3v6.1
					C-2051,2848-2052.5,2849.5-2054.3,2849.5z"/>
				<path class="st45" d="M-1905,2849.5h-122c-2.3,0-4.2-1.9-4.2-4.2v-4.4c0-2.3,1.9-4.2,4.2-4.2h122c2.3,0,4.2,1.9,4.2,4.2v4.4
					C-1900.8,2847.6-1902.7,2849.5-1905,2849.5z"/>
				<path class="st45" d="M-1796.7,2819.3H-1965c-3.5,0-6.4-2.9-6.4-6.4l0,0c0-3.5,2.9-6.4,6.4-6.4h168.4c3.5,0,6.4,2.9,6.4,6.4l0,0
					C-1790.3,2816.4-1793.2,2819.3-1796.7,2819.3z"/>
				<path class="st45" d="M-1999,2879.7h-128.4c-3.5,0-6.4-2.9-6.4-6.4l0,0c0-3.5,2.9-6.4,6.4-6.4h128.4c3.5,0,6.4,2.9,6.4,6.4l0,0
					C-1992.6,2876.8-1995.5,2879.7-1999,2879.7z"/>
				<path class="st45" d="M-1796.7,2879.7H-1965c-3.5,0-6.4-2.9-6.4-6.4l0,0c0-3.5,2.9-6.4,6.4-6.4h168.4c3.5,0,6.4,2.9,6.4,6.4l0,0
					C-1790.3,2876.8-1793.2,2879.7-1796.7,2879.7z"/>
			</g>
			<g>
				<path class="st45" d="M-1999,2911.1h-128.4c-3.5,0-6.4-2.9-6.4-6.4l0,0c0-3.5,2.9-6.4,6.4-6.4h128.4c3.5,0,6.4,2.9,6.4,6.4l0,0
					C-1992.6,2908.3-1995.5,2911.1-1999,2911.1z"/>
				<path class="st45" d="M-1796.7,2911.1H-1965c-3.5,0-6.4-2.9-6.4-6.4l0,0c0-3.5,2.9-6.4,6.4-6.4h168.4c3.5,0,6.4,2.9,6.4,6.4l0,0
					C-1790.3,2908.3-1793.2,2911.1-1796.7,2911.1z"/>
			</g>
			<path class="st45" d="M-1876.2,2769.2h-94.4c-2.5,0-4.6-2.1-4.6-4.6v-10.4c0-2.5,2.1-4.6,4.6-4.6h94.4c2.5,0,4.6,2.1,4.6,4.6
				v10.4C-1871.6,2767.1-1873.6,2769.2-1876.2,2769.2z"/>
		</g>
		<g>
			<path class="st1" d="M-2297.5,1903l-8.7,6.3l-8.8-6.2c1.9-2.7,5.1-4.5,8.8-4.5C-2302.6,1898.5-2299.4,1900.3-2297.5,1903z"/>
			<g>
				<path class="st1" d="M-2306.2,1883.3c-8.8,0-16.5,4.4-21.2,11l5.5,3.9c3.5-4.9,9.2-8.1,15.7-8.1c6.4,0,12.1,3.2,15.6,8l5.5-4
					C-2289.8,1887.5-2297.5,1883.3-2306.2,1883.3z"/>
			</g>
			<g>
				<path class="st1" d="M-2306.2,1854.3c-18.5,0-34.9,9.2-44.8,23.3l5.5,3.9c8.7-12.3,23.1-20.4,39.3-20.4
					c16.1,0,30.4,7.9,39.1,20.1l5.5-4C-2271.5,1863.4-2287.8,1854.3-2306.2,1854.3z"/>
			</g>
			<g>
				<path class="st1" d="M-2306.2,1870.2c-13.2,0-24.9,6.5-32,16.5l5.5,3.9c5.9-8.2,15.5-13.6,26.4-13.6c10.8,0,20.4,5.3,26.3,13.4
					l5.5-3.9C-2281.5,1876.6-2293.1,1870.2-2306.2,1870.2z"/>
			</g>
		</g>
		<path class="st1" d="M-2355.1,2825.8c0,12.8,4.3,24.6,11.6,34c2.4,3.1,5.1,6,8.1,8.5c3,2.5,6.2,4.7,9.7,6.6
			c7.8,4.2,16.8,6.6,26.3,6.6c11.9,0,22.9-3.7,31.9-10.1c0.5-0.3,0.9-0.6,1.4-1c4.1-3,7.7-6.6,10.9-10.7c7.3-9.4,11.6-21.2,11.6-34
			c0-30.7-24.9-55.7-55.7-55.7C-2330.2,2770.1-2355.1,2795-2355.1,2825.8z"/>
		<path class="st47" d="M-2284.3,2861.5l-5.1-4.5c-0.4,0.1-0.9,0.2-1.3,0.2c-0.9-0.6-1.9-1.3-3-1.9c0.3-2.1,0.6-4,0.9-5.7
			c0.8-6,0.9-9.6,0.9-10.1c2.7-0.1,4.6-0.4,4.6-0.4c5.1-1.2,5.4-18.7,4.2-27.9c1,0,1.9-0.1,2.9-0.5c3.9-1.7,4.1-7.6,4.1-7.6
			s-1.1,2.1-2.8,2.8c0,0,6.5-8.9-1-15c-7.5-6.1-15.2-2.1-19.6-1.9c-9.6,0.6-15.8,1.2-19,7.5c-3.1,6.2-1.9,23.4,4.1,29.7
			c0.1,0.6,0.2,1.2,0.3,1.7c0.4,2.3,1.2,4.1,2.4,5.6c-1.3,7.4-4.4,12.9-7.1,16.5c-1.9,1.4-3.5,3.3-5.1,5.5c0,0-0.1,0.1-0.1,0.1
			s0,0,0,0c-2.9,4.1-5.3,9.5-7.2,15.8c0,0,0,0.1,0,0.1c3.1,2.2,6.6,4.1,10.2,5.6c0.2,0.1,0.5,0.2,0.7,0.3c0.1,0,0.1,0,0.2,0.1
			c0.4,0.2,0.8,0.3,1.2,0.5c0.9,0.4,1.9,0.7,2.8,1c1,0.3,2,0.6,3,0.9c0.5,0.1,0.9,0.2,1.4,0.3c0.4,0.1,0.8,0.2,1.2,0.3
			c0.1,0,0.1,0,0.2,0c0.3,0.1,0.6,0.1,0.8,0.2c0.6,0.1,1.3,0.2,2,0.3c0.1,0,0.3,0,0.5,0.1c0.4,0.1,0.7,0.1,1.1,0.1
			c0.5,0.1,1,0.1,1.5,0.2c0.6,0.1,1.2,0.1,1.7,0.1c0.5,0,1.1,0.1,1.7,0.1c0.6,0,1.2,0,1.7,0c0.6,0,1.2,0,1.9,0c0.1,0,0.1,0,0.2,0
			c0.1,0,0.3,0,0.5,0c0.3,0,0.6,0,0.9,0c0,0,0.1,0,0.1,0c0.6,0,1.2-0.1,1.7-0.1c7.5-0.7,14.6-2.9,21-6.3
			C-2276.5,2869.4-2280.5,2865-2284.3,2861.5z"/>
		<path class="st1" d="M-1808.4,3149.5c0,12.9,4.3,24.7,11.6,34.2c2.4,3.1,5.2,6,8.2,8.6c9.8,8.3,22.4,13.3,36.2,13.3
			c12.6,0,24.1-4.1,33.5-11.1c4.1-3.1,7.8-6.7,10.9-10.8c7.3-9.5,11.6-21.3,11.6-34.2c0-31-25.1-56.1-56.1-56.1
			C-1783.3,3093.4-1808.4,3118.5-1808.4,3149.5z"/>
		<path class="st38" d="M-1723.7,3181.2c-0.1-0.1-0.2-0.3-0.3-0.4c-0.2-0.3-0.5-0.6-0.9-0.9l0,0c-0.7-0.6-1.7-1.1-2.8-1.5
			c0,0-0.1,0-0.1,0c-4.9-2.1-11.3-2.8-11.3-2.8c-1.8-0.3-3.3-0.5-3.9-0.5c-1.9-1.5-4.4-7.5-4.8-16.7l0,0c0,0,2.1-4.9,4.9-3.4
			c4.3,2.4,12.7-7.2,10-19.8c-0.3-1.4-0.6-2.6-1-3.7c0.9,0.4,1.9,0.7,2.9,0.7c2.5,0,6.3-6.4,6.8-8.6c0.5-2.2,0-9.3-3.5-11.4
			c-3.4-2.1-8.7,0.3-8.9,0.4c1.7-2.4,7.6-1.9,8.7-1.8c-13.7-2.8-16.6,6-16.8,6.7c-8.7-7.9-22.1,5.7-25.3,9.4
			c-0.2,0.2-0.4,0.4-0.7,0.6c-0.7,0.4-1.6,1.1-2.5,2.2c-1.7,2.1-2.3,4.7-2.3,7.3c0,4.5,1.7,8.7,1.7,8.7c0.8,7.6,3,17.1,6.5,17.4
			c0,0,1.2,0,3.1-0.1c0,0.1,0,0.2,0,0.2c0.1,1.3,0.1,2.7,0.1,4.2v0.9c0,3.8-0.2,7.5-1.1,7.9c-0.3,0-0.5,0-0.8,0.1
			c-0.4,0-1,0.1-1,0.1c-3.1,0.4-5.2,0.7-6.8,1c-3.1,0.5-3.8,0.9-4.6,1.5c-0.2,0.2-0.4,0.4-0.5,0.6c-2.2,1.7-6.3,5.5-9.9,13
			c9.8,8.3,22.4,13.3,36.2,13.3c12.6,0,24.1-4.1,33.5-11.1C-1720.4,3189-1722,3184.3-1723.7,3181.2z"/>
		<path class="st1" d="M-1808.4,2022.6c0,12.9,4.3,24.7,11.6,34.2c2.4,3.1,5.2,6,8.2,8.6c9.8,8.3,22.4,13.3,36.2,13.3
			c12.6,0,24.1-4.1,33.5-11.1c4.1-3.1,7.8-6.7,10.9-10.8c7.3-9.5,11.6-21.3,11.6-34.2c0-31-25.1-56.1-56.1-56.1
			C-1783.3,1966.6-1808.4,1991.7-1808.4,2022.6z"/>
		<path class="st38" d="M-1723.7,2054.4c-0.1-0.1-0.2-0.3-0.3-0.4c-0.2-0.3-0.5-0.6-0.9-0.9l0,0c-0.7-0.6-1.7-1.1-2.8-1.5
			c0,0-0.1,0-0.1,0c-4.9-2.1-11.3-2.8-11.3-2.8v0c-1.8-0.3-3.3-0.5-3.9-0.5c-0.5-0.4-0.9-1-1.4-1.8v0c-1.6-2.7-3.1-7.9-3.4-14.9l0,0
			c0,0,2.1-4.9,4.9-3.3c4.3,2.4,12.7-7.2,10-19.8c-0.3-1.4-0.6-2.6-1-3.7c0.9,0.4,1.9,0.7,2.9,0.7c2.5,0,6.3-6.4,6.8-8.6
			c0.5-2.2,0-9.3-3.5-11.4c-3.4-2.1-8.7,0.3-8.9,0.4c1.7-2.4,7.6-1.9,8.7-1.8c-13.7-2.9-16.6,6-16.8,6.7c-8.7-7.9-22.1,5.8-25.3,9.4
			c-0.2,0.2-0.4,0.4-0.7,0.6c-0.7,0.4-1.6,1.1-2.5,2.2c-1.7,2.1-2.3,4.7-2.3,7.3c0,4.5,1.7,8.7,1.7,8.7c0.8,7.6,3,17.1,6.5,17.4
			c0,0,1.2,0,3.1-0.1c0,0.1,0,0.1,0,0.2c0.1,1.3,0.1,2.7,0.1,4.2v0.9c0,3.8-0.2,7.5-1.1,7.9c-0.3,0-0.5,0-0.8,0.1
			c-0.4,0-1,0.1-1,0.1c-3.1,0.4-5.2,0.7-6.8,1c-3.1,0.5-3.8,0.9-4.6,1.5c-0.2,0.2-0.4,0.4-0.5,0.6c-2.2,1.7-6.3,5.6-9.9,13
			c0.5,0.5,1.1,0.9,1.6,1.3c0.1,0.1,0.2,0.1,0.3,0.2c0.4,0.3,0.8,0.6,1.2,0.9c0.3,0.2,0.6,0.5,0.9,0.7c0.3,0.2,0.6,0.4,0.9,0.6
			c0.4,0.3,0.9,0.6,1.4,0.9c0.3,0.2,0.6,0.4,0.9,0.6c0.4,0.2,0.8,0.5,1.2,0.7c0.4,0.3,0.9,0.5,1.3,0.7c0,0,0.1,0,0.1,0.1
			c0,0,0,0,0.1,0h0c0.1,0,0.1,0.1,0.2,0.1c0.4,0.2,0.7,0.4,1.1,0.5c0,0,0,0,0.1,0c0.1,0.1,0.2,0.1,0.3,0.2c0.2,0.1,0.4,0.2,0.6,0.3
			c0.2,0.1,0.4,0.2,0.6,0.3c0.4,0.2,0.9,0.4,1.4,0.6c0.5,0.2,0.9,0.4,1.4,0.6c0.2,0.1,0.4,0.2,0.6,0.3c0.2,0.1,0.4,0.2,0.6,0.2
			c0.4,0.2,0.9,0.3,1.3,0.5c0.5,0.2,0.9,0.3,1.4,0.4c0.4,0.1,0.8,0.2,1.1,0.4c0,0,0.1,0,0.1,0c0.2,0.1,0.5,0.1,0.7,0.2
			c1.3,0.4,2.7,0.7,4.1,1c0.6,0.1,1.2,0.2,1.8,0.3c0.2,0,0.3,0.1,0.5,0.1c0,0,0.1,0,0.1,0c0,0,0,0,0.1,0c0.4,0.1,0.8,0.1,1.2,0.1
			c0.1,0,0.2,0,0.2,0c0.1,0,0.1,0,0.2,0c0.4,0.1,0.7,0.1,1.1,0.1c0.1,0,0.1,0,0.2,0c0.1,0,0.2,0,0.3,0c0.7,0.1,1.3,0.1,2,0.1h0.1
			c0.2,0,0.4,0,0.6,0c0.1,0,0.3,0,0.4,0c0.6,0,1.3,0,1.9,0c12.6,0,24.1-4.1,33.5-11.1C-1720.4,2062.2-1722,2057.5-1723.7,2054.4z"/>
		<path class="st39" d="M-1047.6,4248.8l-201.9,104.5h-134.4c-32.4-21.7-200.8-136.6-270.4-222.2c-14.8-18.1-68.8-174.5-110.2-301.4
			v-0.1c5.5,16.9,121.3,263.5,154.3,291.5c33,28,206.1,191.3,253.9,189.6c46.3-1.6,292.9-58.3,308.2-61.8
			C-1048,4248.9-1047.8,4248.9-1047.6,4248.8z"/>
		<path class="st51" d="M-641.3,4353.4h-728c36.5-14.3,176.2-67.7,321-104.4c0.2,0,0.5-0.1,0.7-0.2
			c124.4-31.5,252.4-50.5,321.9-21.9l0.5,0.7L-641.3,4353.4z"/>
		<path class="st39" d="M-1814.1,3391.8C-1814.1,3391.8-1814.1,3391.8-1814.1,3391.8c12.3-4.5,29.5-7.5,37.9,6.5
			c13,21.8-35.4,213.9-41.5,238.1L-1814.1,3391.8z"/>
		<path class="st40" d="M-1810.3,3288.5l-4.2,116.2c0,0,24.4,4,38.3-6.4C-1762.3,3387.9-1769.6,3287.1-1810.3,3288.5z"/>
		<path class="st43" d="M-2299.4,3961.4c-70,14.3-220.7-40.6-220.7-40.6l24.3-234.9l-170.4,195.1
			c-86.7-32.3-222.3-116.5-302.9-168.9c206.5-22.5,360.6-226.3,360.6-226.3c143.1,77.5,304.7,122.8,304.7,122.8
			C-2303.8,3748.3-2299.4,3961.4-2299.4,3961.4z"/>
		<path class="st38" d="M-2779.5,3748.1c0.1-15.7,13-28.2,28.6-28.1c15.7,0.1,28.2,13,28.1,28.6s-13,28.2-28.6,28.1
			C-2767,3776.6-2779.6,3763.7-2779.5,3748.1z"/>
	</g>
</g>
</svg>
